<svg id="Capa_4" data-name="Capa 4" xmlns="http://www.w3.org/2000/svg" xmlns:xlink="http://www.w3.org/1999/xlink" viewBox="0 0 499 299"><defs><style>.cls-1{fill:#fff;}.cls-2{fill:none;stroke-miterlimit:10;stroke-width:0.75px;stroke:url(#Degradado_sin_nombre_2);}.cls-3{fill:url(#Degradado_sin_nombre_28);}.cls-4{fill:url(#Degradado_sin_nombre_28-2);}.cls-5{fill:url(#Degradado_sin_nombre_28-3);}.cls-6{fill:#f2f2f2;}.cls-7{fill:url(#Naranja_rojizo_2);}.cls-8{fill:url(#Naranja_rojizo_2-2);}.cls-9{fill:url(#Naranja_rojizo_2-3);}.cls-10{fill:url(#Naranja_rojizo_2-4);}.cls-11{fill:url(#Naranja_rojizo_2-5);}</style><linearGradient id="Degradado_sin_nombre_2" x1="0.68" y1="78.23" x2="155.32" y2="78.23" gradientUnits="userSpaceOnUse"><stop offset="0" stop-color="#d90d3a"/><stop offset="0.5" stop-color="#e6304e"/><stop offset="1" stop-color="#ef7e7c"/></linearGradient><linearGradient id="Degradado_sin_nombre_28" x1="329.23" y1="314.05" x2="541.07" y2="102.2" gradientUnits="userSpaceOnUse"><stop offset="0" stop-color="#fac493"/><stop offset="0.04" stop-color="#f6b180"/><stop offset="0.11" stop-color="#f09a68"/><stop offset="0.14" stop-color="#f09668"/><stop offset="0.39" stop-color="#ef7e6b"/><stop offset="0.57" stop-color="#ed8561"/><stop offset="0.76" stop-color="#ee7569"/><stop offset="0.8" stop-color="#ec7165"/><stop offset="0.83" stop-color="#e5665a"/><stop offset="0.87" stop-color="#d95348"/><stop offset="0.89" stop-color="#d1473c"/><stop offset="0.93" stop-color="#c75449"/><stop offset="0.98" stop-color="#bd6357"/></linearGradient><linearGradient id="Degradado_sin_nombre_28-2" x1="326.66" y1="229.67" x2="554.3" y2="229.67" xlink:href="#Degradado_sin_nombre_28"/><linearGradient id="Degradado_sin_nombre_28-3" x1="323.89" y1="308.71" x2="535.73" y2="96.86" xlink:href="#Degradado_sin_nombre_28"/><linearGradient id="Naranja_rojizo_2" x1="449.84" y1="74.29" x2="254.9" y2="289.97" gradientUnits="userSpaceOnUse"><stop offset="0" stop-color="#ef7b5a"/><stop offset="0.5" stop-color="#e30613"/><stop offset="1" stop-color="#cb181a"/></linearGradient><linearGradient id="Naranja_rojizo_2-2" x1="463.95" y1="122.09" x2="269" y2="337.77" xlink:href="#Naranja_rojizo_2"/><linearGradient id="Naranja_rojizo_2-3" x1="244.47" y1="-23.66" x2="49.53" y2="192.02" xlink:href="#Naranja_rojizo_2"/><linearGradient id="Naranja_rojizo_2-4" x1="215.91" y1="-18.76" x2="20.96" y2="196.92" xlink:href="#Naranja_rojizo_2"/><linearGradient id="Naranja_rojizo_2-5" x1="230.03" y1="-36.62" x2="35.09" y2="179.06" xlink:href="#Naranja_rojizo_2"/></defs><title>bg-book-selection1</title><rect class="cls-1" width="499" height="299"/><path class="cls-2" d="M53.74,4.26l0.1,0.14A2,2,0,0,0,56,5a2,2,0,0,0,1.18-1.77A2,2,0,0,0,56,1.49a1.41,1.41,0,0,0-.57-0.11,2.07,2.07,0,0,0-1.66.83c-0.11.18-.21,0.36-0.31,0.54L53.32,3a0.38,0.38,0,0,0,0,.23,0.38,0.38,0,0,0,0,.12A2.44,2.44,0,0,0,53.74,4.26Zm0.37-1.14c0.09-.17.18-0.33,0.28-0.49a1.26,1.26,0,0,1,1.29-.44,1.28,1.28,0,0,1,.73,1.07,1.27,1.27,0,0,1-.73,1.08,0.57,0.57,0,0,1-.24,0,1.36,1.36,0,0,1-1-.41l-0.11-.15A2,2,0,0,1,54,3.26ZM4.25,155.43L5,154.67l-4,0v0.76ZM53.54,37.71c0.37,1.31,1.4,1.15,2.09,1.06l0.26,0a1.38,1.38,0,0,0,1.09-1,2.17,2.17,0,0,1,.16-0.34,0.84,0.84,0,0,0,0-.84,2.55,2.55,0,0,0-1.49-1.34l-0.37,0a2.11,2.11,0,0,0-2,1.64,0.38,0.38,0,0,0,0,.17v0a1,1,0,0,0,.19.59A0.68,0.68,0,0,1,53.54,37.71ZM54,37A1.27,1.27,0,0,1,55.54,36a2,2,0,0,1,1,1,3,3,0,0,0-.23.46,0.66,0.66,0,0,1-.48.56l-0.28,0a4.21,4.21,0,0,1-.57.05,0.62,0.62,0,0,1-.68-0.56,1.2,1.2,0,0,0-.16-0.33A0.57,0.57,0,0,1,54,37S54,37,54,37Zm-9.6.07a3.25,3.25,0,0,0,.64,1.38,5.64,5.64,0,0,1,.33.51c0.51,1,1.07,1.89,1.6,2.81,0.71,1.21,1.45,2.47,2.09,3.75a1.87,1.87,0,0,0,2,1.07c1.64-.07,3.27-0.09,4.78-0.09,1.18,0,2.36,0,3.51.09a2,2,0,0,0,2.07-1.2c1.19-2.18,2.49-4.35,3.75-6.45l0.52-.87a1.87,1.87,0,0,0,0-2.09l-0.52-.87c-1.26-2.1-2.56-4.27-3.74-6.45a2,2,0,0,0-1.93-1.21H59.36c-1.52.05-3.18,0.08-5.21,0.09-0.91,0-1.89,0-3.18-.08a1.8,1.8,0,0,0-1.79,1q-1.49,2.64-3,5.26l-1.53,2.66a2.13,2.13,0,0,0-.15.34l0,0.12a0.38,0.38,0,0,0,0,.18A0.41,0.41,0,0,0,44.44,37.07Zm0.79-.15a1.39,1.39,0,0,1,.09-0.22L46.84,34q1.51-2.63,3-5.26a1,1,0,0,1,1.09-.57c1.3,0.06,2.29.08,3.22,0.08,2,0,3.7,0,5.23-.09a1.26,1.26,0,0,1,1.37.81c1.2,2.19,2.5,4.37,3.76,6.48L65,36.37a1.1,1.1,0,0,1,0,1.3l-0.52.87C63.26,40.64,62,42.82,60.75,45a1.23,1.23,0,0,1-1.21.81H59.4c-1.17-.06-2.37-0.09-3.56-0.09-1.52,0-3.16,0-4.81.09a1.15,1.15,0,0,1-1.24-.65c-0.65-1.3-1.4-2.57-2.12-3.8-0.53-.91-1.08-1.84-1.59-2.78A6.31,6.31,0,0,0,45.71,38a2.66,2.66,0,0,1-.51-1Zm-18.49-15a1.93,1.93,0,0,0,1.14-1.5l0-.08c0.19-.62-0.77-1.82-1.23-2a1.61,1.61,0,0,0-.53-0.08,2,2,0,0,0-1.68.84l-0.11.17A2,2,0,0,0,24,20a0.37,0.37,0,0,0,0,.09,0.7,0.7,0,0,0,.22.66A2,2,0,0,0,26.74,21.88Zm-2-1.73A1.45,1.45,0,0,1,25,19.66l0.13-.2a1.31,1.31,0,0,1,1.3-.43,2.6,2.6,0,0,1,.76,1l0,0.08a1.27,1.27,0,0,1-.63,1,1.82,1.82,0,0,1-.52.09,1.26,1.26,0,0,1-1.12-.82,1,1,0,0,0-.14-0.18A0.4,0.4,0,0,0,24.74,20.14ZM2.83,45.38C4,43.2,5.32,41,6.57,38.94l0.53-.88A1.86,1.86,0,0,0,7.1,36l-0.53-.89C5.31,33,4,30.83,2.83,28.66a2,2,0,0,0-1.78-1.19v0.76A1.24,1.24,0,0,1,2.17,29c1.19,2.19,2.49,4.36,3.75,6.45l0.53,0.89a1.1,1.1,0,0,1,0,1.3l-0.52.88C4.66,40.65,3.36,42.83,2.17,45a1.23,1.23,0,0,1-1.11.8v0.75A2,2,0,0,0,2.83,45.38Zm-0.17,34c0.79-1.45,1.65-2.91,2.49-4.31l0.93-1.58,1.09-1.85a1.61,1.61,0,0,0,0-1.74c-0.51-.84-1-1.7-1.49-2.56S4.77,65.74,4.29,65C4,64.55,3.82,64.13,3.58,63.72S3,62.65,2.66,62.13a1.55,1.55,0,0,0-1.54-.84H1.06v0.76H1.13a0.87,0.87,0,0,1,.89.48c0.32,0.51.61,1,.91,1.56s0.47,0.84.72,1.25c0.47,0.79.93,1.59,1.39,2.39s1,1.72,1.5,2.57a0.86,0.86,0,0,1,0,1L5.43,73.11,4.49,74.69C3.66,76.1,2.79,77.56,2,79a0.76,0.76,0,0,1-.87.47H1.06v0.76H1.12A1.51,1.51,0,0,0,2.66,79.39ZM112.33,4.26l0.1,0.14a2,2,0,0,0,2.15.63,2,2,0,0,0,1.18-1.77,2,2,0,0,0-1.18-1.77A1.41,1.41,0,0,0,114,1.38a2.07,2.07,0,0,0-1.66.84c-0.11.18-.21,0.36-0.31,0.55L111.91,3a0.38,0.38,0,0,0,0,.23,0.37,0.37,0,0,0,0,.12A2.43,2.43,0,0,0,112.33,4.26Zm0.37-1.14c0.09-.17.18-0.33,0.28-0.49a1.28,1.28,0,0,1,1.29-.44A1.28,1.28,0,0,1,115,3.26a1.27,1.27,0,0,1-.73,1.08,0.57,0.57,0,0,1-.24,0,1.36,1.36,0,0,1-1-.41L113,3.82a2,2,0,0,1-.32-0.56ZM55.27,102.68a2.11,2.11,0,0,0-2,1.64,0.38,0.38,0,0,0,0,.17v0a1,1,0,0,0,.19.59,0.68,0.68,0,0,1,.07.13,1.75,1.75,0,0,0,.31.62l0.54-.54a1.23,1.23,0,0,1-.11-0.28,1.2,1.2,0,0,0-.16-0.33,0.56,0.56,0,0,1-.07-0.13s0,0,0,0a1.27,1.27,0,0,1,1.51-1.05,1.05,1.05,0,0,1,.41.27l0.54-.54a1.75,1.75,0,0,0-.85-0.48ZM80.2,78.11a1.85,1.85,0,0,0-1.8,1.06c-0.91,1.64-1.84,3.27-2.78,4.89l2-2c0.47-.83,1-1.66,1.42-2.5a1.12,1.12,0,0,1,1.18-.66H80.8l0.75-.75-1.29,0H80.2ZM62.88,65c-0.24-.41-0.48-0.82-0.71-1.23s-0.6-1.07-.92-1.59a1.61,1.61,0,0,0-1.54-.84c-3,0-6,0-8.92,0h0a1.51,1.51,0,0,0-1.51.86L47.64,65q-0.92,1.59-1.82,3.18l-0.43.74c-0.31.53-.64,1.08-0.92,1.65a0.63,0.63,0,0,0,0,.41,41.24,41.24,0,0,0,2.2,4c0.35,0.58.69,1.16,1,1.74l0.43,0.76c0.37,0.66.74,1.32,1.13,2a1.53,1.53,0,0,0,1.52.85h0c3,0,6,0,8.92,0a1.48,1.48,0,0,0,1.54-.87c0.79-1.46,1.65-2.91,2.49-4.32l0.93-1.58,1.09-1.85a1.61,1.61,0,0,0,0-1.74c-0.51-.84-1-1.7-1.49-2.56S63.36,65.74,62.88,65Zm2.23,6.3L64,73.11l-0.93,1.58c-0.84,1.41-1.7,2.87-2.5,4.34a0.75,0.75,0,0,1-.87.47c-3,0-6,0-8.93,0A0.8,0.8,0,0,1,49.91,79c-0.38-.65-0.75-1.3-1.12-2l-0.43-.76c-0.34-.59-0.69-1.17-1-1.76a41.9,41.9,0,0,1-2.1-3.81c0.25-.5.55-1,0.83-1.48l0.44-.75c0.6-1.06,1.21-2.12,1.82-3.17l1.62-2.81a0.81,0.81,0,0,1,.87-0.47h8.93a0.83,0.83,0,0,1,.89.48c0.32,0.51.61,1,.91,1.56s0.47,0.84.72,1.25c0.47,0.79.93,1.59,1.39,2.39s1,1.72,1.5,2.57A0.86,0.86,0,0,1,65.11,71.25ZM114.23,35.2l-0.37,0a2.11,2.11,0,0,0-2,1.64,0.38,0.38,0,0,0,0,.17v0a1,1,0,0,0,.19.59,0.68,0.68,0,0,1,.07.13c0.37,1.31,1.4,1.15,2.09,1.06l0.26,0a1.38,1.38,0,0,0,1.09-1,2.15,2.15,0,0,1,.16-0.34,0.84,0.84,0,0,0,0-.84A2.55,2.55,0,0,0,114.23,35.2Zm0.63,2.22a0.66,0.66,0,0,1-.48.56l-0.28,0a4.22,4.22,0,0,1-.57.05,0.62,0.62,0,0,1-.68-0.56,1.2,1.2,0,0,0-.16-0.33,0.54,0.54,0,0,1-.07-0.13s0,0,0,0a1.27,1.27,0,0,1,1.5-1.05,2.05,2.05,0,0,1,1,1A2.94,2.94,0,0,0,114.87,37.42Zm-40-15c0.4,0.74.84,1.47,1.26,2.18A35,35,0,0,1,78,28c0.79,1.72,2.13,1.79,3.44,1.71a55.77,55.77,0,0,1,6.19,0,11.8,11.8,0,0,0,1.55,0l0.43,0a0.84,0.84,0,0,0,.69-0.5l0-.08c0.65-1,1.25-2.08,1.83-3.1s1-1.83,1.6-2.73c0.17-.27.32-0.55,0.47-0.84a9.82,9.82,0,0,1,.63-1.07,1.83,1.83,0,0,0,.09-2.2c-1-1.59-1.9-3.21-2.83-4.82l-0.37-.64c-0.39-.67-0.84-1.46-1.25-2.26a1.47,1.47,0,0,0-1.44-.8c-2.72,0-5.8,0-8.83,0H80.19a1.85,1.85,0,0,0-1.8,1.06c-1,1.8-2,3.62-3.05,5.37l-0.06.1-0.44.75a22.17,22.17,0,0,0-1.09,2,0.38,0.38,0,0,0,0,.2,0.43,0.43,0,0,0,0,.08,3.57,3.57,0,0,0,.76,1.72A6.75,6.75,0,0,1,74.88,22.46Zm0.62-4.19L76,17.51l0.05-.1c1-1.76,2.06-3.58,3.06-5.38a1.1,1.1,0,0,1,1.18-.66c1.4,0,2.8,0,4.18,0l4.67,0a0.69,0.69,0,0,1,.76.39c0.42,0.81.87,1.61,1.27,2.29l0.37,0.64c0.94,1.62,1.87,3.23,2.84,4.83a1.06,1.06,0,0,1-.06,1.36A10.52,10.52,0,0,0,93.59,22c-0.14.27-.29,0.54-0.45,0.79-0.56.91-1.1,1.85-1.61,2.75s-1.17,2.07-1.81,3.07l-0.06.1-0.08.13-0.44,0a11.59,11.59,0,0,1-1.45,0,56,56,0,0,0-6.27,0c-1.21.07-2.12,0-2.71-1.27a35.62,35.62,0,0,0-1.9-3.46c-0.42-.7-0.85-1.42-1.24-2.15a7.53,7.53,0,0,0-.43-0.68,3,3,0,0,1-.63-1.32C74.79,19.47,75.15,18.86,75.5,18.27Zm9.82,3.61a1.93,1.93,0,0,0,1.14-1.51l0-.08c0.19-.62-0.77-1.82-1.23-2a1.61,1.61,0,0,0-.53-0.08,2,2,0,0,0-1.68.84l-0.11.17a2,2,0,0,0-.37.8,0.39,0.39,0,0,0,0,.09,0.7,0.7,0,0,0,.22.66A2,2,0,0,0,85.32,21.88Zm-2-1.73a1.47,1.47,0,0,1,.25-0.49l0.13-.2A1.3,1.3,0,0,1,85,19a2.59,2.59,0,0,1,.76,1l0,0.08a1.27,1.27,0,0,1-.63,1,1.82,1.82,0,0,1-.52.09,1.26,1.26,0,0,1-1.12-.82,1,1,0,0,0-.14-0.18A0.38,0.38,0,0,0,83.33,20.14ZM56,69a1.41,1.41,0,0,0-.57-0.11,2.07,2.07,0,0,0-1.66.83c-0.11.18-.21,0.36-0.31,0.54l-0.13.23a0.38,0.38,0,0,0,0,.23,0.39,0.39,0,0,0,0,.12,2.44,2.44,0,0,0,.47.92l0.1,0.14a2,2,0,0,0,2.15.63A1.92,1.92,0,0,0,56,69Zm-0.31,2.85a0.58,0.58,0,0,1-.23,0,1.37,1.37,0,0,1-1-.41l-0.11-.15A2.11,2.11,0,0,1,54,70.77l0.07-.14c0.09-.17.18-0.33,0.28-0.49A1.12,1.12,0,1,1,55.68,71.85ZM26.13,55.75a2.13,2.13,0,0,0,1.8-1.91,2.09,2.09,0,0,0-1.74-1.73,2.39,2.39,0,0,0-.4,0A2,2,0,0,0,24,53.61a0.38,0.38,0,0,0,0,.2A0.39,0.39,0,0,0,24,54C24.55,55.44,24.81,55.79,26.13,55.75Zm-0.07-2.89a1.35,1.35,0,0,1,1.11,1A1.43,1.43,0,0,1,26.12,55H25.89c-0.63,0-.73-0.1-1.14-1.17C25.11,53,25.35,52.74,26.07,52.86Zm6,60a2,2,0,0,0-1.91-1H29.81c-1.88.1-3.77,0-5.63,0.08-0.36,0-.72,0-1.07,0a8,8,0,0,0-2.07,0,1.13,1.13,0,0,0-.91.58c-1.26,2.06-2.44,4.15-3.43,5.93-0.16.29-.35,0.57-0.53,0.85a7.62,7.62,0,0,0-1,2,0.71,0.71,0,0,0,0,.35,43.36,43.36,0,0,0,2.13,3.86c0.45,0.75.91,1.53,1.34,2.3,0.2,0.36.4,0.71,0.6,1.06s0.5,0.86.73,1.3a1.44,1.44,0,0,0,1.44.8c2,0,4.64,0,7.35,0l0.76-.76c-3,0-5.87,0-8.11,0a0.69,0.69,0,0,1-.76-0.39c-0.24-.45-0.49-0.89-0.75-1.33s-0.4-.69-0.59-1c-0.43-.79-0.9-1.57-1.35-2.33-0.71-1.19-1.45-2.42-2-3.69a7.25,7.25,0,0,1,.91-1.71c0.19-.3.38-0.59,0.55-0.9,1-1.77,2.16-3.85,3.41-5.9a0.46,0.46,0,0,1,.44-0.24,7.34,7.34,0,0,1,1.83,0c0.34,0,.68,0,1,0H24.2c1.86,0,3.75,0,5.66-.08a1.41,1.41,0,0,1,1.58.63c1.31,2.51,2.75,5,4.38,7.61a0.82,0.82,0,0,1,0,1c-0.35.5-.64,1-0.93,1.56l-0.36.65-0.88,1.52-0.61,1.06,2.07-2.07,0.08-.13,0.37-.66c0.28-.5.57-1,0.89-1.49a1.57,1.57,0,0,0,0-1.85C34.84,117.81,33.41,115.34,32.11,112.85ZM120,28.66a2,2,0,0,0-1.93-1.21H118c-1.52.05-3.18,0.08-5.21,0.09-0.91,0-1.89,0-3.18-.08a1.79,1.79,0,0,0-1.79,1q-1.48,2.62-3,5.22l-1.55,2.7a2.17,2.17,0,0,0-.15.34l0,0.12a0.38,0.38,0,0,0,0,.18,0.4,0.4,0,0,0,0,.1,3.25,3.25,0,0,0,.64,1.38A5.6,5.6,0,0,1,104,39c0.51,1,1.07,1.89,1.61,2.81,0.71,1.21,1.45,2.47,2.09,3.75a1.86,1.86,0,0,0,2,1.07c1.2-.05,2.38-0.07,3.53-0.08l0.77-.77c-1.39,0-2.85,0-4.33.09a1.15,1.15,0,0,1-1.24-.65c-0.65-1.3-1.4-2.57-2.12-3.79-0.53-.91-1.08-1.84-1.59-2.78A6.46,6.46,0,0,0,104.3,38a2.67,2.67,0,0,1-.51-1l0-.07a1.36,1.36,0,0,1,.09-0.22l1.55-2.7q1.5-2.61,3-5.22a1,1,0,0,1,1.09-.57c1.3,0.06,2.3.08,3.22,0.08,2,0,3.7,0,5.23-.09a1.26,1.26,0,0,1,1.37.81c1.2,2.19,2.5,4.37,3.76,6.48l0.4,0.68,0.56-.56-0.31-.51C122.5,33,121.2,30.84,120,28.66ZM138.85,10.6h-0.07a1.85,1.85,0,0,0-1.8,1.06c-1,1.79-2,3.59-3,5.33l-0.08.14-0.44.75a22.08,22.08,0,0,0-1.09,2,0.38,0.38,0,0,0,0,.2,0.41,0.41,0,0,0,0,.08,3.57,3.57,0,0,0,.76,1.72,6.72,6.72,0,0,1,.39.61c0.4,0.74.84,1.47,1.26,2.18l0.12,0.2,0.56-.56,0,0c-0.42-.7-0.85-1.42-1.24-2.15a7.34,7.34,0,0,0-.43-0.68,3,3,0,0,1-.63-1.32c0.3-.63.66-1.24,1-1.83l0.44-.76,0.08-.14c1-1.74,2-3.55,3-5.34a1.1,1.1,0,0,1,1.18-.66c1.4,0,2.8,0,4.18,0l4.67,0a0.92,0.92,0,0,1,.51.11l0.54-.54a1.64,1.64,0,0,0-1.06-.33C145,10.64,141.87,10.66,138.85,10.6ZM19.42,95.53c0.79,1.72,2.13,1.79,3.44,1.71a56.16,56.16,0,0,1,6.19,0,12,12,0,0,0,1.55,0l0.42,0a0.84,0.84,0,0,0,.69-0.5l0-.08c0.65-1,1.25-2.07,1.83-3.1s1-1.84,1.6-2.73c0.17-.27.32-0.55,0.47-0.84a9.64,9.64,0,0,1,.63-1.07,1.83,1.83,0,0,0,.1-2.2c-1-1.6-1.9-3.21-2.83-4.82l-0.37-.64c-0.39-.67-0.84-1.46-1.25-2.26a1.47,1.47,0,0,0-1.44-.8c-3.14,0-6,0-8.83,0H21.61a1.85,1.85,0,0,0-1.8,1.06c-1,1.79-2,3.56-3,5.33l-0.08.14-0.44.74a22.31,22.31,0,0,0-1.09,2,0.38,0.38,0,0,0,0,.2,0.4,0.4,0,0,0,0,.08,3.57,3.57,0,0,0,.77,1.72,6.65,6.65,0,0,1,.39.61c0.4,0.74.84,1.47,1.26,2.18A35,35,0,0,1,19.42,95.53Zm-2.89-6.61a3,3,0,0,1-.63-1.32c0.3-.63.66-1.24,1-1.84L17.36,85l0.08-.14c1-1.77,2-3.55,3-5.34a1.12,1.12,0,0,1,1.18-.66c1.38,0,2.75,0,4.16,0l4.69,0a0.68,0.68,0,0,1,.76.39c0.42,0.82.88,1.62,1.27,2.29l0.37,0.64c0.94,1.62,1.87,3.23,2.84,4.83a1.07,1.07,0,0,1-.06,1.37A10.49,10.49,0,0,0,35,89.56c-0.14.27-.29,0.54-0.45,0.79-0.56.91-1.1,1.85-1.61,2.76s-1.17,2.07-1.81,3.07l-0.06.1L31,96.4l-0.43,0a11.56,11.56,0,0,1-1.46,0,55.81,55.81,0,0,0-6.27,0c-1.21.07-2.12,0-2.71-1.27a35.5,35.5,0,0,0-1.9-3.46c-0.42-.7-0.85-1.42-1.24-2.15A7.32,7.32,0,0,0,16.53,88.93ZM6.34,122.07q3.84,6.57,7.64,13.18l1.75,3a11.38,11.38,0,0,0-.92,1.52c-0.12.22-.24,0.45-0.37,0.67L12,144.64c-1.36,2.37-2.76,4.79-4.17,7.19L10,149.67c0.91-1.56,1.8-3.12,2.68-4.65s1.6-2.79,2.41-4.18c0.13-.23.25-0.46,0.38-0.69a10,10,0,0,1,.92-1.49c1.23-.09,2.49-0.06,3.71,0l0.93,0,0.75-.75-1.67,0c-1.22,0-2.48-.05-3.73,0l-1.76-3Q10.82,128.26,7,121.69a0.51,0.51,0,0,1,0-.63c1.8-3,3.55-6,5.24-9q1.16-2,2.34-4.07l1.29-2.21,0.52-.89H35.52l0.53,0.91L37.33,108q1.17,2,2.33,4.06c1,1.66,1.92,3.36,2.91,5l0.56-.56c-0.95-1.63-1.89-3.27-2.8-4.87q-1.16-2-2.33-4.07l-1.28-2.19-0.52-.89,1.94-3.38C40,97.83,42,94.38,44,91c0.16-.28.31-0.56,0.47-0.84a11.48,11.48,0,0,1,1.07-1.74,1.32,1.32,0,0,0,.19-0.35C52,88,58.46,88,64.79,88.07a1.32,1.32,0,0,0,.19.35,11.57,11.57,0,0,1,1.07,1.75c0.15,0.28.3,0.56,0.46,0.84l0.79,1.36,0.56-.56-0.69-1.19c-0.16-.27-0.3-0.54-0.45-0.82A12.23,12.23,0,0,0,65.58,88a0.45,0.45,0,0,1,0-.58c2.75-4.71,5.72-9.86,9.1-15.74a0.9,0.9,0,0,1,.94-0.49l12.9,0,0.76-.76-13.66,0a2,2,0,0,0-.63.08l-1.77-3.08q-3.81-6.61-7.64-13.21a0.51,0.51,0,0,1,0-.63c1.8-3,3.54-6,5.23-9q1.17-2,2.35-4.1l1.36-2.33L75,37.4H94.12l1.3,2.25,2,3.55c1.83,3.21,3.73,6.52,5.67,9.74A1.68,1.68,0,0,1,103,55l-2.33,4,2.11-2.11,0.87-1.49a3.64,3.64,0,0,0,.49-1.17h1.29l0.76-.76h-2.05a2.89,2.89,0,0,0-.38-0.94c-1.94-3.21-3.83-6.52-5.66-9.72l-2-3.55L94.78,37l1.93-3.37c1.91-3.34,3.89-6.79,5.86-10.16,0.16-.28.31-0.56,0.47-0.84a11.59,11.59,0,0,1,1.07-1.74,1.32,1.32,0,0,0,.19-0.35c6.33-.11,12.75-0.11,19.08,0a1.32,1.32,0,0,0,.19.35,11.52,11.52,0,0,1,1.07,1.74c0.15,0.28.3,0.57,0.47,0.84,1.36,2.33,2.72,4.68,4.06,7l0.56-.56c-1.31-2.28-2.63-4.57-4-6.84-0.16-.27-0.31-0.54-0.45-0.82a12.28,12.28,0,0,0-1.15-1.85,0.45,0.45,0,0,1,0-.58c2.72-4.66,5.61-9.66,9.1-15.74a0.9,0.9,0,0,1,.94-0.49h0c5.92,0,11.84,0,17.76,0h0a2.23,2.23,0,0,0,.69-0.11l0.14,0.26,0.51,0.91,0.6,1,0.56-.56L154,4.33l-0.51-.9-0.15-.27a2.37,2.37,0,0,0,.42-0.54L154.67,1H153.8l-0.71,1.24a1.08,1.08,0,0,1-1.1.66h0c-5.92,0-11.84,0-17.76,0h0a2.37,2.37,0,0,0-.62.08l-1.13-2h-0.88l1.35,2.33a1.86,1.86,0,0,0-.32.41c-3.49,6.08-6.38,11.08-9.1,15.73a1.49,1.49,0,0,0-.13.32c-3.17-.05-6.35-0.08-9.54-0.08s-6.38,0-9.54.08a1.49,1.49,0,0,0-.13-0.32Q100.54,13.26,97,7L95.4,4.33,94.87,3.4l-0.14-.24a2.36,2.36,0,0,0,.42-0.54L96.08,1H95.21L94.5,2.24a1.08,1.08,0,0,1-1.1.66h0c-5.92,0-11.84,0-17.76,0h0A2.37,2.37,0,0,0,75,3L73.87,1H73l1.35,2.33a1.86,1.86,0,0,0-.32.41c-3.46,6-6.35,11-9.1,15.73a1.51,1.51,0,0,0-.13.32c-3.17-.05-6.35-0.08-9.54-0.08s-6.38,0-9.54.08a1.49,1.49,0,0,0-.13-0.32Q42,13.33,38.45,7.17L36.81,4.33l-0.51-.9-0.15-.27a2.36,2.36,0,0,0,.42-0.54L37.5,1H36.62L35.91,2.24a1.08,1.08,0,0,1-1.1.66h0c-5.92,0-11.84,0-17.76,0h0a2.37,2.37,0,0,0-.61.08L15.29,1H14.41l1.35,2.33a1.87,1.87,0,0,0-.32.41c-3.49,6.08-6.38,11.08-9.1,15.73a1.49,1.49,0,0,0-.13.32c-1.71,0-3.43,0-5.15,0v0.76c1.72,0,3.44,0,5.15,0a1.32,1.32,0,0,0,.19.35,11.48,11.48,0,0,1,1.07,1.74c0.15,0.28.3,0.56,0.47,0.84,2,3.39,4,6.85,5.88,10.2L15.73,37l-0.46.79-1.34,2.29q-1.18,2-2.35,4.09c-1.68,2.95-3.43,6-5.22,8.95a1.76,1.76,0,0,0-.15.32c-1.71,0-3.43,0-5.15,0v0.76c1.72,0,3.44,0,5.15,0a1.42,1.42,0,0,0,.13.32q3.85,6.6,7.65,13.23l1.76,3.05a1.86,1.86,0,0,0-.32.41c-3.45,6-6.35,11-9.1,15.74a1.5,1.5,0,0,0-.13.32c-1.71,0-3.43,0-5.15,0V88c1.72,0,3.44,0,5.15,0a1.31,1.31,0,0,0,.19.35,11.59,11.59,0,0,1,1.08,1.75c0.15,0.28.3,0.56,0.46,0.84,2,3.39,4,6.86,5.89,10.21l1.9,3.32-0.51.87-1.29,2.21q-1.18,2-2.34,4.08c-1.69,3-3.43,6-5.23,9a1.79,1.79,0,0,0-.15.32c-1.71,0-3.43,0-5.15,0v0.76c1.72,0,3.44,0,5.15,0A1.41,1.41,0,0,0,6.34,122.07Zm66.23-54.3,1.77,3.08a1.91,1.91,0,0,0-.32.41c-3.38,5.88-6.35,11-9.1,15.74a1.49,1.49,0,0,0-.13.32c-3.17-.05-6.35-0.08-9.54-0.08s-6.38,0-9.54.08A1.5,1.5,0,0,0,45.58,87Q42,80.82,38.41,74.62l-1.6-2.77L36.32,71l-0.17-.3a2.38,2.38,0,0,0,.42-0.54c3.37-5.9,6-10.44,8.5-14.73a3.65,3.65,0,0,0,.49-1.17h0c6.38,0.09,12.85.09,19.23,0a1.42,1.42,0,0,0,.13.32Q68.76,61.15,72.57,67.77Zm-7-47.91c2.75-4.71,5.64-9.71,9.1-15.74a0.9,0.9,0,0,1,.94-0.49h0c5.92,0,11.84,0,17.76,0h0a2.23,2.23,0,0,0,.69-0.11l0.13,0.23,0.53,0.94L96.29,7.4q3.6,6.23,7.22,12.46a0.45,0.45,0,0,1,0,.58,12.37,12.37,0,0,0-1.15,1.86c-0.15.27-.3,0.55-0.45,0.82-2,3.38-4,6.83-5.86,10.17l-1.92,3.35H75L73,33.26c-1.91-3.33-3.88-6.78-5.85-10.15-0.16-.27-0.3-0.54-0.45-0.82a12.35,12.35,0,0,0-1.15-1.86A0.45,0.45,0,0,1,65.58,19.86Zm-19.87.7c6.33-.11,12.75-0.11,19.08,0a1.31,1.31,0,0,0,.19.35,11.54,11.54,0,0,1,1.07,1.74c0.15,0.28.3,0.57,0.47,0.84,2,3.37,3.94,6.81,5.85,10.14L74.32,37l-0.43.74-1.37,2.34q-1.18,2-2.35,4.1c-1.68,2.95-3.42,6-5.22,8.94a1.76,1.76,0,0,0-.15.32c-6.38.09-12.85,0.09-19.22,0h0a2.89,2.89,0,0,0-.38-0.94c-1.93-3.21-3.83-6.52-5.66-9.72l-2-3.55L36.19,37l1.93-3.36C40,30.33,42,26.87,44,23.5c0.16-.28.31-0.56,0.47-0.84a11.52,11.52,0,0,1,1.07-1.74A1.32,1.32,0,0,0,45.71,20.56ZM14.48,33.32C12.56,30,10.57,26.5,8.59,23.11c-0.16-.27-0.3-0.54-0.45-0.82A12.29,12.29,0,0,0,7,20.44a0.45,0.45,0,0,1,0-.58c2.72-4.66,5.61-9.66,9.1-15.74A0.9,0.9,0,0,1,17,3.63h0c5.92,0,11.84,0,17.76,0h0a2.23,2.23,0,0,0,.69-0.11L35.64,3.8l0.51,0.91,1.63,2.83q3.56,6.16,7.14,12.31a0.45,0.45,0,0,1,0,.58,12.27,12.27,0,0,0-1.15,1.85c-0.15.28-.3,0.55-0.45,0.82-2,3.38-4,6.83-5.86,10.17l-1.92,3.35H16.38Zm0.17,34.09Q10.83,60.79,7,54.18a0.51,0.51,0,0,1,0-.63c1.8-3,3.54-6,5.23-9q1.17-2,2.35-4.09l1.34-2.29,0.47-.81H35.53l1.3,2.25,2,3.55c1.83,3.2,3.73,6.52,5.67,9.73A1.68,1.68,0,0,1,44.42,55c-2.51,4.28-5.14,8.83-8.51,14.73a1.08,1.08,0,0,1-1.1.66h0c-5.92,0-11.84,0-17.76,0h0a2.35,2.35,0,0,0-.61.08Zm-0.17,33.44C12.56,97.49,10.58,94,8.59,90.63c-0.16-.27-0.3-0.54-0.45-0.81A12.27,12.27,0,0,0,7,88a0.45,0.45,0,0,1,0-.58c2.75-4.72,5.64-9.72,9.1-15.74A0.9,0.9,0,0,1,17,71.15h0c5.92,0,11.84,0,17.76,0h0a2.21,2.21,0,0,0,.68-0.11l0.16,0.28,0.5,0.88L37.75,75q3.57,6.19,7.17,12.37a0.45,0.45,0,0,1,0,.58,12.2,12.2,0,0,0-1.15,1.86c-0.15.27-.3,0.55-0.45,0.82-2,3.37-4,6.82-5.86,10.16l-1.93,3.36H16.38Zm45-5.88H59.36c-1.51.05-3.12,0.08-5.21,0.09-0.92,0-1.9,0-3.18-.08a1.76,1.76,0,0,0-1.79,1q-1.47,2.6-3,5.19l-1.57,2.73a2.11,2.11,0,0,0-.15.35l0,0.12a0.38,0.38,0,0,0,0,.18,0.41,0.41,0,0,0,0,.1,3.25,3.25,0,0,0,.64,1.38,5.56,5.56,0,0,1,.33.51c0.51,1,1.07,1.89,1.6,2.81,0.41,0.7.83,1.42,1.24,2.15l0.56-.56c-0.38-.67-0.76-1.33-1.14-2-0.53-.91-1.08-1.84-1.59-2.78a6.48,6.48,0,0,0-.37-0.58,2.67,2.67,0,0,1-.51-1l0-.07a1.39,1.39,0,0,1,.09-0.22l1.57-2.73q1.49-2.59,3-5.19a1,1,0,0,1,1.09-.57c1.29,0.06,2.28.09,3.22,0.09,2.1,0,3.71,0,5.23-.09a1.27,1.27,0,0,1,1.37.81c0.28,0.51.58,1,.87,1.53l0.56-.56c-0.25-.45-0.51-0.89-0.76-1.34A2,2,0,0,0,59.49,95Zm-33.7,24.63A2,2,0,0,0,24,121.13a0.38,0.38,0,0,0,0,.2,0.39,0.39,0,0,0,0,.18c0.55,1.45.81,1.78,2.13,1.76a2.13,2.13,0,0,0,1.81-1.91,2.09,2.09,0,0,0-1.74-1.73A2.42,2.42,0,0,0,25.79,119.59Zm1.39,1.79a1.43,1.43,0,0,1-1.06,1.12H25.89c-0.63,0-.73-0.1-1.14-1.17,0.36-.78.6-1.09,1.31-1A1.35,1.35,0,0,1,27.18,121.38Zm67.54-69a5.63,5.63,0,0,1-.33-0.51c-0.5-.93-1-1.85-1.57-2.75-0.73-1.23-1.48-2.51-2.12-3.81a1.93,1.93,0,0,0-1.9-1.06H88.4c-1.31.07-2.64,0.07-3.93,0.07H82.61c-0.33,0-.66,0-1,0a7.7,7.7,0,0,0-2,0,1.15,1.15,0,0,0-.91.58c-0.6,1-1.18,2-1.73,2.94s-1.1,1.94-1.69,2.88c-0.17.27-.32,0.55-0.47,0.84a9.84,9.84,0,0,1-.63,1.07,1.83,1.83,0,0,0-.09,2.2c1,1.58,1.88,3.18,2.81,4.79l0.39,0.68c0.41,0.71.84,1.47,1.25,2.26a1.45,1.45,0,0,0,1.44.8c2.72,0,5.8,0,8.83,0a1.9,1.9,0,0,0,1.86-1.06c0.68-1.23,1.37-2.44,2.07-3.66l1-1.81c0.15-.27.31-0.53,0.47-0.79a11.26,11.26,0,0,0,1.07-2,0.38,0.38,0,0,0,0-.17,0.38,0.38,0,0,0,0-.1A3.24,3.24,0,0,0,94.72,52.42Zm-1.09,3.3c-0.16.27-.33,0.54-0.49,0.81l-1,1.81C91.41,59.56,90.71,60.78,90,62a1.1,1.1,0,0,1-1.18.66c-3-.06-6.12,0-8.85,0a0.69,0.69,0,0,1-.76-0.39C78.82,61.46,78.38,60.69,78,60l-0.39-.68c-0.93-1.61-1.86-3.21-2.82-4.8a1.07,1.07,0,0,1,.06-1.37A10.53,10.53,0,0,0,75.5,52c0.14-.27.29-0.54,0.45-0.79,0.6-1,1.16-1.95,1.71-2.91s1.12-2,1.71-2.92a0.46,0.46,0,0,1,.44-0.24,6.85,6.85,0,0,1,1.74,0c0.35,0,.7,0,1.05,0h1.85c1.3,0,2.64,0,4-.07a1.36,1.36,0,0,1,1.58.62c0.65,1.33,1.41,2.61,2.15,3.86,0.52,0.89,1.06,1.8,1.56,2.72a6.42,6.42,0,0,0,.37.58,2.67,2.67,0,0,1,.51,1A10.91,10.91,0,0,1,93.62,55.72ZM19.42,28c0.79,1.72,2.13,1.79,3.44,1.71a55.81,55.81,0,0,1,6.19,0,11.81,11.81,0,0,0,1.55,0l0.43,0a0.85,0.85,0,0,0,.69-0.5l0-.08C32.42,28.05,33,27,33.6,26s1-1.83,1.6-2.73c0.17-.27.32-0.56,0.47-0.84a9.7,9.7,0,0,1,.63-1.07,1.83,1.83,0,0,0,.1-2.2c-1-1.58-1.88-3.19-2.81-4.79l-0.39-.68c-0.39-.67-0.84-1.46-1.25-2.26a1.46,1.46,0,0,0-1.44-.8c-2.72,0-5.8,0-8.83,0H21.61a1.85,1.85,0,0,0-1.8,1.06c-1,1.79-2,3.56-3,5.33l-0.08.14-0.44.75a22,22,0,0,0-1.09,2,0.38,0.38,0,0,0,0,.2,0.4,0.4,0,0,0,0,.08,3.57,3.57,0,0,0,.76,1.72,6.68,6.68,0,0,1,.39.61c0.4,0.74.84,1.47,1.26,2.18A34.94,34.94,0,0,1,19.42,28Zm-2.89-6.61a3,3,0,0,1-.63-1.32c0.3-.63.66-1.24,1-1.83l0.44-.76,0.08-.14c1-1.77,2-3.55,3-5.34a1.1,1.1,0,0,1,1.18-.66c1.4,0,2.8,0,4.18,0l4.67,0a0.7,0.7,0,0,1,.76.39c0.42,0.82.88,1.62,1.27,2.29l0.39,0.68c0.93,1.61,1.86,3.21,2.82,4.8a1.08,1.08,0,0,1-.06,1.37A10.49,10.49,0,0,0,35,22c-0.14.27-.29,0.54-0.45,0.79-0.56.91-1.1,1.84-1.61,2.75s-1.17,2.07-1.81,3.07l-0.06.1L31,28.89l-0.44,0a11.55,11.55,0,0,1-1.45,0,56.4,56.4,0,0,0-6.27,0c-1.21.07-2.12,0-2.71-1.27a35.66,35.66,0,0,0-1.9-3.46c-0.42-.7-0.85-1.42-1.25-2.15A7.34,7.34,0,0,0,16.53,21.41ZM2.66,11.88C3.45,10.42,4.31,9,5.14,7.57L6.08,6,7.18,4.13a1.61,1.61,0,0,0,0-1.74C6.9,1.93,6.63,1.47,6.36,1H5.48c0.34,0.6.68,1.2,1,1.79a0.86,0.86,0,0,1,0,1L5.43,5.6,4.49,7.18C3.65,8.59,2.79,10,2,11.51a0.77,0.77,0,0,1-.87.47H1.06v0.76H1.12A1.51,1.51,0,0,0,2.66,11.88ZM84.78,52.11a2.39,2.39,0,0,0-.4,0,2,2,0,0,0-1.78,1.54,0.67,0.67,0,0,0,0,.38c0.55,1.45.82,1.78,2.13,1.76a2.13,2.13,0,0,0,1.8-1.91A2.09,2.09,0,0,0,84.78,52.11Zm0.62,2.47a1.17,1.17,0,0,1-.69.41H84.48c-0.63,0-.73-0.1-1.14-1.17,0.36-.78.6-1.08,1.31-1a1.35,1.35,0,0,1,1.11,1A1.18,1.18,0,0,1,85.4,54.58ZM26.74,89.39a1.93,1.93,0,0,0,1.14-1.5l0-.08c0.19-.62-0.77-1.82-1.23-2a1.61,1.61,0,0,0-.53-0.09,2,2,0,0,0-1.68.84l-0.11.17a2,2,0,0,0-.37.8,0.37,0.37,0,0,0,0,.09,0.7,0.7,0,0,0,.22.66A2,2,0,0,0,26.74,89.39Zm-2-1.73A1.45,1.45,0,0,1,25,87.17l0.13-.2a1.31,1.31,0,0,1,1.3-.43,2.6,2.6,0,0,1,.76,1l0,0.08a1.26,1.26,0,0,1-.63,1,1.82,1.82,0,0,1-.52.09,1.26,1.26,0,0,1-1.12-.81,1,1,0,0,0-.14-0.19A0.39,0.39,0,0,0,24.74,87.66ZM2.83,112.89c1.19-2.18,2.49-4.35,3.75-6.46l0.52-.87a1.86,1.86,0,0,0,0-2.08l-0.53-.89C5.31,100.5,4,98.34,2.83,96.17A2,2,0,0,0,1.06,95v0.76a1.24,1.24,0,0,1,1.11.79c1.19,2.19,2.49,4.36,3.75,6.46l0.53,0.89a1.1,1.1,0,0,1,0,1.3L5.93,106c-1.26,2.11-2.57,4.29-3.76,6.48a1.23,1.23,0,0,1-1.11.8v0.75A2,2,0,0,0,2.83,112.89Zm0,33.82c1.48-2.78,2.9-5.25,4.36-7.55a1.59,1.59,0,0,0,0-1.74c-0.51-.84-1-1.7-1.49-2.55s-0.92-1.61-1.39-2.4c-0.24-.41-0.47-0.82-0.71-1.23s-0.6-1.07-.92-1.59a1.55,1.55,0,0,0-1.54-.84H1.06v0.76H1.13A0.85,0.85,0,0,1,2,130c0.32,0.51.61,1,.91,1.56s0.47,0.84.72,1.25c0.47,0.79.93,1.59,1.39,2.39s1,1.72,1.5,2.57a0.83,0.83,0,0,1,0,.94c-1.47,2.32-2.9,4.81-4.39,7.6a1.14,1.14,0,0,1-1.08.64v0.76A1.87,1.87,0,0,0,2.81,146.71ZM105.25,7.42c0.35,0.58.7,1.16,1,1.75L106.7,9.9c0.38,0.67.75,1.33,1.14,2a1.54,1.54,0,0,0,1.54.85c3,0,6,0,8.92,0a1.52,1.52,0,0,0,1.54-.87c0.79-1.45,1.65-2.9,2.48-4.3L123.26,6l1.09-1.85a1.61,1.61,0,0,0,0-1.74c-0.28-.46-0.54-0.93-0.81-1.39h-0.88c0.34,0.6.68,1.2,1,1.79a0.86,0.86,0,0,1,0,1L122.6,5.6l-0.94,1.59c-0.83,1.41-1.7,2.86-2.49,4.33a0.75,0.75,0,0,1-.87.47c-3,0-6,0-8.93,0a0.82,0.82,0,0,1-.88-0.47c-0.39-.65-0.76-1.32-1.13-2l-0.42-.74c-0.34-.59-0.69-1.18-1-1.76a41.73,41.73,0,0,1-2.1-3.8c0.25-.5.55-1,0.83-1.48L105.07,1h-0.88L104,1.36c-0.31.53-.64,1.08-0.92,1.65a0.38,0.38,0,0,0,0,.21,0.38,0.38,0,0,0,0,.2A41,41,0,0,0,105.25,7.42Zm-58.59,0c0.35,0.58.69,1.16,1,1.74l0.42,0.74c0.38,0.66.75,1.33,1.14,2a1.53,1.53,0,0,0,1.51.85h0c3,0,6,0,8.92,0a1.51,1.51,0,0,0,1.54-.87C62,10.42,62.9,9,63.73,7.57L64.67,6l1.09-1.85a1.61,1.61,0,0,0,0-1.74C65.48,1.93,65.22,1.47,65,1H64.07c0.34,0.6.68,1.2,1,1.79a0.86,0.86,0,0,1,0,1L64,5.6,63.08,7.18c-0.83,1.41-1.7,2.86-2.5,4.33a0.75,0.75,0,0,1-.87.47c-3,0-6,0-8.93,0a0.82,0.82,0,0,1-.88-0.47c-0.39-.65-0.76-1.31-1.13-2l-0.42-.74C48,8.2,47.67,7.62,47.32,7a41.73,41.73,0,0,1-2.1-3.81c0.25-.5.55-1,0.83-1.48L46.48,1H45.6l-0.21.36c-0.31.53-.64,1.08-0.92,1.65a0.38,0.38,0,0,0,0,.21,0.38,0.38,0,0,0,0,.2A41,41,0,0,0,46.67,7.42ZM18.72,60.36c0.39,0.67.84,1.46,1.25,2.26a1.47,1.47,0,0,0,1.44.8c2.72,0,5.8,0,8.83,0a1.89,1.89,0,0,0,1.86-1.06c0.68-1.23,1.37-2.44,2.07-3.66l1-1.81c0.15-.27.31-0.53,0.47-0.79a11.33,11.33,0,0,0,1.07-2,0.39,0.39,0,0,0,0-.17,0.4,0.4,0,0,0,0-.1,3.24,3.24,0,0,0-.64-1.38,5.64,5.64,0,0,1-.33-0.51c-0.5-.93-1-1.85-1.57-2.75-0.73-1.23-1.48-2.51-2.12-3.81a1.93,1.93,0,0,0-1.9-1.06h-0.4c-1.35.08-2.73,0.08-4.07,0.07H23.93c-0.32,0-.64,0-1,0a7.49,7.49,0,0,0-1.93,0,1.15,1.15,0,0,0-.91.58c-0.6,1-1.18,2-1.73,2.94s-1.1,1.94-1.69,2.88c-0.17.27-.32,0.56-0.47,0.84a9.65,9.65,0,0,1-.63,1.07,1.83,1.83,0,0,0-.09,2.2c1,1.58,1.88,3.18,2.81,4.78Zm-2.49-7.22A10.45,10.45,0,0,0,16.92,52c0.14-.27.29-0.54,0.45-0.79,0.6-1,1.16-1.95,1.71-2.91s1.12-2,1.71-2.92a0.46,0.46,0,0,1,.44-0.24,6.93,6.93,0,0,1,1.7,0c0.34,0,.68,0,1,0h1.8c1.35,0,2.74,0,4.11-.07a1.36,1.36,0,0,1,1.58.62c0.65,1.33,1.41,2.61,2.15,3.86,0.52,0.89,1.06,1.8,1.56,2.72a6.38,6.38,0,0,0,.37.58,2.67,2.67,0,0,1,.51,1,10.92,10.92,0,0,1-1,1.84c-0.17.27-.33,0.54-0.49,0.81l-1,1.81c-0.7,1.22-1.39,2.44-2.07,3.67a1.1,1.1,0,0,1-1.18.66c-3-.06-6.12,0-8.85,0a0.67,0.67,0,0,1-.76-0.39c-0.42-.81-0.87-1.61-1.27-2.29L19,59.3c-0.93-1.6-1.86-3.21-2.81-4.79A1.06,1.06,0,0,1,16.24,53.14Z"/><path class="cls-3" d="M499,156.1h-4.73c0.28-6.94.47-13.86,0.53-20.8L492,138.07c0,1,0,1.93,0,2.89,0.07,4.45.27,8.9,0.41,13.36,0,0.56,0,1.12,0,1.83-1.92.06-3.8,0-5.85,0q0.28-6.54.42-13.06l-2.51,2.51c0.09,2.87.19,5.74,0.28,8.61,0,0.6,0,1.19,0,1.78a23.08,23.08,0,0,1-5.69.09q0-2.57.08-5.15L477,153.1l0,2.92a18.17,18.17,0,0,1-3.14.17l-1.71,1.71,26.81-.45V156.1Z"/><path class="cls-4" d="M499,297.2c-9.73-.37-19.44-0.59-29.27-0.43v-4.72l29.27-.5v-2.11l-29.32-.5V284.4l29.32-.5v-1.35h-4.73c0.44-10.51.67-21,.5-31.49H499V249.2l-29.31-.49c0-1.46,0-3,0-4.57l29.31-.49v-2c-9.73-.37-19.47-0.59-29.26-0.42v-4.78a8.2,8.2,0,0,1,.82-0.09c7.38-.07,14.76-0.12,22.14-0.21,2.1,0,4.2-.15,6.29-0.23V234c-9.75-.37-19.46-0.59-29.24-0.43v-4.72l29.24-.5v-2.11l-29.25-.5v-4.55l29.25-.5v-1.33a21.56,21.56,0,0,1-4.73-.12c0.44-10.41.66-20.84,0.5-31.4H499V186l-29.24-.49v-4.57l29.24-.49v-2c-9.75-.38-19.46-0.59-29.27-0.43v-4.72l29.27-.49v-2c-9.76-.37-19.47-0.59-29.32-0.43V165.6l29.32-.5v-2c-4.53-.13-9-0.28-13.57-0.34-5.2-.07-10.4,0-15.68,0v-2.36l-2,2-0.42,25.4h-4.61c0-.29-0.08-0.57-0.09-0.85-0.06-6.42-.1-12.84-0.18-19.26l-2.5,2.5-0.29,17.61h-4.56l-0.22-12.55-2.72,2.72L452,187.75c-1.44,0-3,0-4.69,0,0-.44,0-0.83,0-1.23q0-1.87,0-3.75l-2.87,2.87,0,2.06h-2l-1.77,1.77c9.67,0.39,19.29.55,29,.43v4.7l-31.52.54V192l-1.72,1.72,0.41,25.61H431c0.29-6.95.48-13.86,0.53-20.8l-2.77,2.77c0,0.86,0,1.72,0,2.58,0.07,4.57.28,9.13,0.42,13.69,0,0.56,0,1.12,0,1.77h-5.85q0.29-6.53.42-13l-2.51,2.51c0.09,2.89.19,5.77,0.28,8.66,0,0.6,0,1.19,0,1.86h-5.7l0.08-5.19-2.09,2.09c0,0.45,0,.9,0,1.35s0,1.12,0,1.75h-3.15l-1.8,1.8,29-.49v5.62l-31.44-.54v-2.15l-2,2-0.41,25.4h-4.55l-0.35-20.09-2.46,2.46-0.29,17.62h-4.63c0-.32-0.08-0.64-0.08-1q0-5.79-.09-11.57l-2.7,2.7-0.16,9.81h-4.57l-0.08-5-2.88,2.88c0,0.72,0,1.43,0,2.16h-2.16l-1.85,1.85,29.12,0.49v4.55l-31.52.54v-3.18l-1.72,1.72,0.41,25.62h-5.75c0.29-6.95.48-13.87,0.53-20.8l-2.77,2.77c0,1,0,1.92,0,2.89,0.07,4.45.27,8.9,0.41,13.36,0,0.56,0,1.12,0,1.81h-5.85q0.28-6.53.41-13L358.05,272c0.09,2.88.19,5.76,0.28,8.65,0,0.6,0,1.19,0,1.86h-5.7l0.08-5.18-2.09,2.09c0,0.47,0,.94.05,1.42s0,1,0,1.55a16.49,16.49,0,0,1-3.24.22l-1.71,1.71,29-.49v5.62l-31.44-.54v-2.16l-2,2L341.16,299h35.17c0-2.5,0-5-.07-7.51s-0.21-4.86-.32-7.29c0-.48,0-1,0-1.5h5.83c0,3.47-.27,6.93-0.3,10.4,0,2-.05,3.94-0.09,5.91H384c0-2.57,0-5.14-.07-7.71,0-2.39-.22-4.79-0.32-7.18,0-.44,0-0.88,0-1.4h5.74L389.07,299h2.59l-0.28-16.19a22.4,22.4,0,0,1,5.62,0L396.73,299h2.59c0-2.65,0-5.3-.08-7.95,0-2.36-.21-4.71-0.32-7.07,0-.4,0-0.81,0-1.28h5.74L404.38,299H439.5c0-3.06-.07-6.13-0.11-9.19,0-1.95-.16-3.89-0.23-5.84,0-.4,0-0.8,0-1.27H445c0,3.47-.27,6.93-0.29,10.39,0,2-.05,3.94-0.09,5.91h2.61c0-2.57,0-5.15-.07-7.72,0-2.39-.22-4.79-0.32-7.18,0-.44,0-0.88,0-1.39h5.74L452.29,299h2.59q-0.14-8.14-.28-16.3h5.61L460,299h2.59l-0.28-16.2a23.41,23.41,0,0,1,5.62,0L467.61,299H499v-1.8ZM487.1,251H492c0,0.49,0,.92,0,1.35,0,5,0,10,.05,15.05,0.07,4.45.27,8.9,0.41,13.36,0,0.56,0,1.12,0,1.81H486.6C487.06,272.07,487.26,261.62,487.1,251Zm-7.5.06h4.6c0.17,10.5.34,20.95,0.5,31.4a25.15,25.15,0,0,1-5.61,0C479.26,272,479.43,261.58,479.6,251.06Zm-7.67,0h4.7c0,0.41,0,.77,0,1.14,0,5.36,0,10.72.07,16.09,0.06,4.2.26,8.39,0.39,12.59,0,0.52,0,1,0,1.73-1.94.07-3.86,0.05-5.7,0Zm15.17-63.21H492c0,0.45,0,.89,0,1.33,0,4.94,0,9.89,0,14.83,0.07,4.53.27,9.05,0.41,13.58,0,0.56,0,1.11,0,1.76H486.6C487.06,208.82,487.26,198.37,487.1,187.84Zm-7.49,0,2.19,0h2.49c0,0.44,0,.84,0,1.23,0,5.17,0,10.35.06,15.52,0.06,4.31.26,8.62,0.39,12.92,0,0.6,0,1.19,0,1.88h-5.7Zm-7.68,0h4.7c0,0.41,0,.77,0,1.14,0,5.32,0,10.65.07,16,0.06,4.23.26,8.47,0.39,12.7,0,0.52,0,1,0,1.73-1.94.07-3.86,0.05-5.7,0C471.6,208.8,471.77,198.36,471.93,187.83ZM374.74,297.28c-10.47-.41-20.9-0.68-31.45-0.5,0-.34-0.06-0.55-0.06-0.77,0-1.31,0-2.61,0-3.95l31.51-.53v5.76Zm0.11-29.19,31.51,0.54v4.55l-31.51.54v-5.63Zm31.53,12.79a7.62,7.62,0,0,1-.84.1c-6.81.06-13.63,0.09-20.44,0.18-2.92,0-5.83.22-8.75,0.33-0.48,0-1,0-1.49,0v-5.74l31.52,0.54v4.59Zm0-15.37-31.5.54v-5.62l31.5,0.54v4.54Zm63.21-12.36v4.75a7.54,7.54,0,0,1-.82.09c-7.41.07-14.83,0.12-22.24,0.22-2.32,0-4.64.18-7,.27-0.48,0-1,0-1.49,0v-5.86C448.6,253.09,459.06,253.3,469.6,253.15Zm-30.44-33.68h5.74l-0.51,31.45h-4.74c0-.35,0-0.71,0-1.07,0-6.78-.06-13.56-0.14-20.35,0-2.84-.23-5.69-0.34-8.53C439.15,220.51,439.16,220,439.16,219.48Zm13,31.48h-4.69l-0.53-31.37a22.47,22.47,0,0,1,5.7-.1c0,3.45-.27,6.91-0.3,10.37s-0.14,7-.17,10.56S452.17,247.38,452.17,251Zm2.43-31.37a21.84,21.84,0,0,1,5.61-.07L459.71,251h-4.56Zm7.53-.12h5.74L467.36,251l-2.2,0h-2.42c0-.36-0.08-0.64-0.08-0.93-0.07-7.42-.11-14.84-0.21-22.25,0-2.36-.21-4.71-0.32-7.07C462.12,220.35,462.14,219.95,462.14,219.48ZM438,218.16c0-.88,0-1.84,0-2.79s0-1.86,0-2.93c5.34,0.15,10.59.36,15.85,0.44s10.46,0,15.75,0v4.73Zm0-7.66v-5.63l31.51,0.54V210Zm-31.54,18.34L438,228.3v5.76c-10.49-.42-20.92-0.68-31.43-0.51v-4.72Zm0,15.31,31.47-.53v5.62l-31.47-.52v-4.57ZM438,283.86v5.75c-10.44-.4-20.87-0.68-31.44-0.5V284.4Zm-29.74-1.3L408.7,251l2.21,0h2.49c0,0.44,0,.84,0,1.23,0,5.32,0,10.65.07,16,0.06,4.23.26,8.47,0.4,12.7,0,0.52,0,1,0,1.66h-5.7Zm7.65,0L416.38,251l2.19,0h2.49c0,0.44,0,.84,0,1.23,0,5.17,0,10.35.06,15.52,0.06,4.31.26,8.62,0.39,12.92,0,0.6,0,1.19,0,1.88h-5.7Zm8-31.5h4.9c0,0.45,0,.89,0,1.32,0,4.94,0,9.89,0,14.83,0.07,4.53.27,9.05,0.41,13.58,0,0.56,0,1.12,0,1.77h-5.85C423.83,272,424,261.6,423.87,251.07Zm7.66,0,2.35,0h2.49c0,0.43,0,.83,0,1.22,0,3.37,0,6.74,0,10.11,0.06,4.87.17,9.73,0.28,14.6,0,1.57.14,3.14,0.2,4.71,0,0.29,0,.58-0.05.91H431C431.48,272,431.71,261.61,431.54,251ZM438,297.28c-10.48-.42-20.91-0.68-31.47-0.51,0-.42-0.05-0.72-0.05-1,0-1.23,0-2.46,0-3.71l31.52-.53v5.76Zm0-55.56c-10.48-.44-20.91-0.67-31.47-0.51v-4.72L438,236v5.76Zm0.19-44.51,31.45,0.54v4.54l-31.43.54A25.56,25.56,0,0,1,438.16,197.21Zm31.45,83.68a7.74,7.74,0,0,1-.85.1c-6.81.06-13.63,0.09-20.44,0.18-2.92,0-5.83.22-8.75,0.33-0.45,0-.9,0-1.49,0-0.11-1,0-1.93,0-2.88s0-1.87,0-3c3.56,0,7,.28,10.54.32s7,0.14,10.44.17,7,0,10.6,0v4.72Zm-31.52-7.05V268.1l31.51,0.53v4.61c-0.32,0-.64.08-1,0.08-7.23.07-14.45,0.11-21.68,0.21-2.47,0-4.94.2-7.4,0.3C439.09,273.85,438.62,273.83,438.1,273.83Zm31.54-8.26c-0.34,0-.66.08-1,0.09-7.38.07-14.75,0.12-22.13,0.21-2.36,0-4.71.2-7.07,0.29-0.44,0-.88,0-1.37,0v-5.73L469.64,261v4.6Z"/><path class="cls-5" d="M333.54,296.55l0,2.45h2.59L336,294.09Z"/><polygon class="cls-6" points="176.5 10.95 176.5 97.37 170.31 103.57 153.27 120.6 146.16 127.72 129.1 144.78 122.01 151.86 104.95 168.92 97.84 176.03 92.87 181.01 85.75 188.12 68.72 205.16 61.6 212.27 44.55 229.33 37.46 236.42 20.4 253.48 14.23 259.64 14.23 173.22 20.4 167.06 37.46 150 44.55 142.91 61.6 125.85 68.72 118.74 85.75 101.7 92.87 94.59 97.84 89.61 104.95 82.5 122.01 65.44 129.1 58.35 146.16 41.3 153.27 34.18 170.31 17.15 176.5 10.95"/><polygon class="cls-6" points="481.94 26.15 481.94 116.02 475.5 122.46 457.79 140.17 450.39 147.57 432.65 165.31 425.29 172.68 407.54 190.42 400.15 197.81 394.98 202.99 387.58 210.38 369.87 228.1 362.47 235.49 344.73 253.23 337.36 260.6 319.62 278.34 313.2 284.76 313.2 194.89 319.62 188.48 337.36 170.74 344.73 163.37 362.47 145.63 369.87 138.23 387.58 120.52 394.98 113.12 400.15 107.95 407.54 100.55 425.29 82.81 432.65 75.44 450.39 57.7 457.79 50.3 475.5 32.59 481.94 26.15"/><path class="cls-7" d="M381.59,145.67a0.62,0.62,0,0,1-.44-1.06l89.44-89.44a0.62,0.62,0,1,1,.88.88L382,145.49A0.62,0.62,0,0,1,381.59,145.67Z"/><path class="cls-8" d="M446.73,140.4a0.62,0.62,0,0,1-.44-1.06L471.65,114a0.62,0.62,0,0,1,.88.88l-25.35,25.35A0.62,0.62,0,0,1,446.73,140.4Z"/><path class="cls-9" d="M4.16,237.61a0.62,0.62,0,0,1-.44-1.06l98.3-98.3a0.62,0.62,0,0,1,.88.88L4.6,237.43A0.62,0.62,0,0,1,4.16,237.61Z"/><path class="cls-10" d="M167.09,34.87a0.62,0.62,0,0,1-.44-1.06L185.47,15a0.62,0.62,0,0,1,.88.88L167.53,34.68A0.62,0.62,0,0,1,167.09,34.87Z"/><path class="cls-11" d="M64.9,145.24a0.62,0.62,0,0,1-.44-1.06l27.37-27.37a0.62,0.62,0,0,1,.88.88L65.34,145.06A0.62,0.62,0,0,1,64.9,145.24Z"/></svg>