<svg id="Capa_4" data-name="Capa 4" xmlns="http://www.w3.org/2000/svg" xmlns:xlink="http://www.w3.org/1999/xlink" viewBox="0 0 499 299"><defs><style>.cls-1{fill:#fff;}.cls-2{fill:#f2f2f2;}.cls-3{fill:url(#Naranja_rojizo_2);}.cls-4{fill:url(#Naranja_rojizo_2-2);}.cls-5{fill:url(#Naranja_rojizo_2-3);}.cls-6{fill:url(#Naranja_rojizo_2-4);}.cls-7{fill:url(#Naranja_rojizo_2-5);}.cls-8{fill:#c00;}.cls-9{fill:url(#Degradado_sin_nombre_32);}</style><linearGradient id="Naranja_rojizo_2" x1="449.84" y1="400.54" x2="254.9" y2="616.22" gradientUnits="userSpaceOnUse"><stop offset="0" stop-color="#ef7b5a"/><stop offset="0.5" stop-color="#e30613"/><stop offset="1" stop-color="#cb181a"/></linearGradient><linearGradient id="Naranja_rojizo_2-2" x1="463.95" y1="448.33" x2="269" y2="664.01" xlink:href="#Naranja_rojizo_2"/><linearGradient id="Naranja_rojizo_2-3" x1="244.47" y1="302.58" x2="49.53" y2="518.26" xlink:href="#Naranja_rojizo_2"/><linearGradient id="Naranja_rojizo_2-4" x1="215.91" y1="307.48" x2="20.96" y2="523.16" xlink:href="#Naranja_rojizo_2"/><linearGradient id="Naranja_rojizo_2-5" x1="230.03" y1="289.63" x2="35.09" y2="505.31" xlink:href="#Naranja_rojizo_2"/><linearGradient id="Degradado_sin_nombre_32" x1="335.86" y1="542.1" x2="499" y2="542.1" gradientUnits="userSpaceOnUse"><stop offset="0" stop-color="#be4518"/><stop offset="0.08" stop-color="#e6411f"/><stop offset="0.23" stop-color="#e74726"/><stop offset="0.43" stop-color="#e85939"/><stop offset="0.53" stop-color="#e96445"/><stop offset="0.79" stop-color="#c0421f"/><stop offset="0.87" stop-color="#da4122"/><stop offset="1" stop-color="#bd2d22"/></linearGradient></defs><title>bg-book-selection2</title><rect class="cls-1" width="499" height="299"/><polygon class="cls-2" points="176 10.45 176 96.87 169.81 103.07 152.77 120.1 145.66 127.22 128.6 144.28 121.51 151.36 104.45 168.42 97.34 175.53 92.37 180.51 85.25 187.62 68.22 204.66 61.1 211.77 44.05 228.83 36.96 235.92 19.9 252.98 13.73 259.14 13.73 172.72 19.9 166.56 36.96 149.5 44.05 142.41 61.1 125.35 68.22 118.24 85.25 101.2 92.37 94.09 97.34 89.11 104.45 82 121.51 64.94 128.6 57.85 145.66 40.8 152.77 33.68 169.81 16.65 176 10.45"/><polygon class="cls-2" points="481.44 25.65 481.44 115.52 475 121.96 457.29 139.67 449.89 147.07 432.15 164.81 424.79 172.18 407.04 189.92 399.65 197.31 394.48 202.49 387.08 209.88 369.37 227.6 361.97 234.99 344.23 252.73 336.86 260.1 319.12 277.84 312.7 284.26 312.7 194.39 319.12 187.98 336.86 170.24 344.23 162.87 361.97 145.13 369.37 137.73 387.08 120.02 394.48 112.62 399.65 107.45 407.04 100.05 424.79 82.31 432.15 74.94 449.89 57.2 457.29 49.8 475 32.09 481.44 25.65"/><path class="cls-3" d="M381.59,471.92a0.62,0.62,0,0,1-.44-1.06l89.44-89.44a0.62,0.62,0,0,1,.88.88L382,471.73A0.62,0.62,0,0,1,381.59,471.92Z" transform="translate(-0.5 -326.75)"/><path class="cls-4" d="M446.73,466.65a0.62,0.62,0,0,1-.44-1.06l25.35-25.35a0.62,0.62,0,0,1,.88.88l-25.35,25.35A0.62,0.62,0,0,1,446.73,466.65Z" transform="translate(-0.5 -326.75)"/><path class="cls-5" d="M4.16,563.86a0.62,0.62,0,0,1-.44-1.06L102,464.5a0.62,0.62,0,0,1,.88.88L4.6,563.68A0.62,0.62,0,0,1,4.16,563.86Z" transform="translate(-0.5 -326.75)"/><path class="cls-6" d="M167.09,361.11a0.62,0.62,0,0,1-.44-1.06l18.82-18.82a0.62,0.62,0,0,1,.88.88l-18.82,18.82A0.62,0.62,0,0,1,167.09,361.11Z" transform="translate(-0.5 -326.75)"/><path class="cls-7" d="M64.9,471.49a0.62,0.62,0,0,1-.44-1.06l27.37-27.37a0.62,0.62,0,1,1,.88.88L65.34,471.31A0.62,0.62,0,0,1,64.9,471.49Z" transform="translate(-0.5 -326.75)"/><circle class="cls-8" cx="3.2" cy="153.4" r="1.49"/><circle class="cls-8" cx="11.12" cy="145.49" r="1.49"/><circle class="cls-8" cx="3.2" cy="145.49" r="1.49"/><circle class="cls-8" cx="19.03" cy="137.58" r="1.49"/><circle class="cls-8" cx="11.12" cy="137.58" r="1.49"/><circle class="cls-8" cx="3.2" cy="137.58" r="1.49"/><circle class="cls-8" cx="26.94" cy="129.66" r="1.49"/><circle class="cls-8" cx="19.03" cy="129.66" r="1.49"/><circle class="cls-8" cx="11.12" cy="129.66" r="1.49"/><circle class="cls-8" cx="3.2" cy="129.66" r="1.49"/><circle class="cls-8" cx="34.85" cy="121.75" r="1.49"/><circle class="cls-8" cx="26.94" cy="121.75" r="1.49"/><circle class="cls-8" cx="19.03" cy="121.75" r="1.49"/><circle class="cls-8" cx="11.12" cy="121.75" r="1.49"/><circle class="cls-8" cx="3.2" cy="121.75" r="1.49"/><circle class="cls-8" cx="42.76" cy="113.84" r="1.49"/><circle class="cls-8" cx="34.85" cy="113.84" r="1.49"/><circle class="cls-8" cx="26.94" cy="113.84" r="1.49"/><circle class="cls-8" cx="19.03" cy="113.84" r="1.49"/><circle class="cls-8" cx="11.12" cy="113.84" r="1.49"/><circle class="cls-8" cx="3.2" cy="113.84" r="1.49"/><circle class="cls-8" cx="50.67" cy="105.93" r="1.49"/><circle class="cls-8" cx="42.76" cy="105.93" r="1.49"/><circle class="cls-8" cx="34.85" cy="105.93" r="1.49"/><circle class="cls-8" cx="26.94" cy="105.93" r="1.49"/><circle class="cls-8" cx="19.03" cy="105.93" r="1.49"/><circle class="cls-8" cx="11.12" cy="105.93" r="1.49"/><circle class="cls-8" cx="3.2" cy="105.93" r="1.49"/><circle class="cls-8" cx="58.58" cy="98.02" r="1.49"/><circle class="cls-8" cx="50.67" cy="98.02" r="1.49"/><circle class="cls-8" cx="42.76" cy="98.02" r="1.49"/><circle class="cls-8" cx="34.85" cy="98.02" r="1.49"/><circle class="cls-8" cx="26.94" cy="98.02" r="1.49"/><circle class="cls-8" cx="19.03" cy="98.02" r="1.49"/><circle class="cls-8" cx="11.12" cy="98.02" r="1.49"/><circle class="cls-8" cx="3.2" cy="98.02" r="1.49"/><circle class="cls-8" cx="66.49" cy="90.11" r="1.49"/><circle class="cls-8" cx="58.58" cy="90.11" r="1.49"/><circle class="cls-8" cx="50.67" cy="90.11" r="1.49"/><circle class="cls-8" cx="42.76" cy="90.11" r="1.49"/><circle class="cls-8" cx="34.85" cy="90.11" r="1.49"/><circle class="cls-8" cx="26.94" cy="90.11" r="1.49"/><circle class="cls-8" cx="19.03" cy="90.11" r="1.49"/><circle class="cls-8" cx="11.12" cy="90.11" r="1.49"/><circle class="cls-8" cx="3.2" cy="90.11" r="1.49"/><circle class="cls-8" cx="74.4" cy="82.2" r="1.49"/><circle class="cls-8" cx="66.49" cy="82.2" r="1.49"/><circle class="cls-8" cx="58.58" cy="82.2" r="1.49"/><circle class="cls-8" cx="50.67" cy="82.2" r="1.49"/><circle class="cls-8" cx="42.76" cy="82.2" r="1.49"/><circle class="cls-8" cx="34.85" cy="82.2" r="1.49"/><circle class="cls-8" cx="26.94" cy="82.2" r="1.49"/><circle class="cls-8" cx="19.03" cy="82.2" r="1.49"/><circle class="cls-8" cx="11.12" cy="82.2" r="1.49"/><circle class="cls-8" cx="3.2" cy="82.2" r="1.49"/><circle class="cls-8" cx="82.31" cy="74.29" r="1.49"/><circle class="cls-8" cx="74.4" cy="74.29" r="1.49"/><circle class="cls-8" cx="66.49" cy="74.29" r="1.49"/><circle class="cls-8" cx="58.58" cy="74.29" r="1.49"/><circle class="cls-8" cx="50.67" cy="74.29" r="1.49"/><circle class="cls-8" cx="42.76" cy="74.29" r="1.49"/><circle class="cls-8" cx="34.85" cy="74.29" r="1.49"/><circle class="cls-8" cx="26.94" cy="74.29" r="1.49"/><circle class="cls-8" cx="19.03" cy="74.29" r="1.49"/><circle class="cls-8" cx="11.12" cy="74.29" r="1.49"/><circle class="cls-8" cx="3.2" cy="74.29" r="1.49"/><circle class="cls-8" cx="90.22" cy="66.38" r="1.49"/><circle class="cls-8" cx="82.31" cy="66.38" r="1.49"/><circle class="cls-8" cx="74.4" cy="66.38" r="1.49"/><circle class="cls-8" cx="66.49" cy="66.38" r="1.49"/><circle class="cls-8" cx="58.58" cy="66.38" r="1.49"/><circle class="cls-8" cx="50.67" cy="66.38" r="1.49"/><circle class="cls-8" cx="42.76" cy="66.38" r="1.49"/><circle class="cls-8" cx="34.85" cy="66.38" r="1.49"/><circle class="cls-8" cx="26.94" cy="66.38" r="1.49"/><circle class="cls-8" cx="19.03" cy="66.38" r="1.49"/><circle class="cls-8" cx="11.12" cy="66.38" r="1.49"/><circle class="cls-8" cx="3.2" cy="66.38" r="1.49"/><circle class="cls-8" cx="98.14" cy="58.47" r="1.49"/><circle class="cls-8" cx="90.22" cy="58.47" r="1.49"/><circle class="cls-8" cx="82.31" cy="58.47" r="1.49"/><circle class="cls-8" cx="74.4" cy="58.47" r="1.49"/><circle class="cls-8" cx="66.49" cy="58.47" r="1.49"/><circle class="cls-8" cx="58.58" cy="58.47" r="1.49"/><circle class="cls-8" cx="50.67" cy="58.47" r="1.49"/><circle class="cls-8" cx="42.76" cy="58.47" r="1.49"/><circle class="cls-8" cx="34.85" cy="58.47" r="1.49"/><circle class="cls-8" cx="26.94" cy="58.47" r="1.49"/><circle class="cls-8" cx="19.03" cy="58.47" r="1.49"/><circle class="cls-8" cx="11.12" cy="58.47" r="1.49"/><circle class="cls-8" cx="3.2" cy="58.47" r="1.49"/><circle class="cls-8" cx="106.05" cy="50.56" r="1.49"/><circle class="cls-8" cx="98.14" cy="50.56" r="1.49"/><circle class="cls-8" cx="90.22" cy="50.56" r="1.49"/><circle class="cls-8" cx="82.31" cy="50.56" r="1.49"/><circle class="cls-8" cx="74.4" cy="50.56" r="1.49"/><circle class="cls-8" cx="66.49" cy="50.56" r="1.49"/><circle class="cls-8" cx="58.58" cy="50.56" r="1.49"/><circle class="cls-8" cx="50.67" cy="50.56" r="1.49"/><circle class="cls-8" cx="42.76" cy="50.56" r="1.49"/><circle class="cls-8" cx="34.85" cy="50.56" r="1.49"/><circle class="cls-8" cx="26.94" cy="50.56" r="1.49"/><circle class="cls-8" cx="19.03" cy="50.56" r="1.49"/><circle class="cls-8" cx="11.12" cy="50.56" r="1.49"/><circle class="cls-8" cx="3.2" cy="50.56" r="1.49"/><circle class="cls-8" cx="113.96" cy="42.64" r="1.49"/><circle class="cls-8" cx="106.05" cy="42.64" r="1.49"/><circle class="cls-8" cx="98.14" cy="42.64" r="1.49"/><circle class="cls-8" cx="90.22" cy="42.64" r="1.49"/><circle class="cls-8" cx="82.31" cy="42.64" r="1.49"/><circle class="cls-8" cx="74.4" cy="42.64" r="1.49"/><circle class="cls-8" cx="66.49" cy="42.64" r="1.49"/><circle class="cls-8" cx="58.58" cy="42.64" r="1.49"/><circle class="cls-8" cx="50.67" cy="42.64" r="1.49"/><circle class="cls-8" cx="42.76" cy="42.64" r="1.49"/><circle class="cls-8" cx="34.85" cy="42.64" r="1.49"/><circle class="cls-8" cx="26.94" cy="42.64" r="1.49"/><circle class="cls-8" cx="19.03" cy="42.64" r="1.49"/><circle class="cls-8" cx="11.12" cy="42.64" r="1.49"/><circle class="cls-8" cx="3.2" cy="42.64" r="1.49"/><circle class="cls-8" cx="121.87" cy="34.73" r="1.49"/><circle class="cls-8" cx="113.96" cy="34.73" r="1.49"/><circle class="cls-8" cx="106.05" cy="34.73" r="1.49"/><circle class="cls-8" cx="98.14" cy="34.73" r="1.49"/><circle class="cls-8" cx="90.22" cy="34.73" r="1.49"/><circle class="cls-8" cx="82.31" cy="34.73" r="1.49"/><circle class="cls-8" cx="74.4" cy="34.73" r="1.49"/><circle class="cls-8" cx="66.49" cy="34.73" r="1.49"/><circle class="cls-8" cx="58.58" cy="34.73" r="1.49"/><circle class="cls-8" cx="50.67" cy="34.73" r="1.49"/><circle class="cls-8" cx="42.76" cy="34.73" r="1.49"/><circle class="cls-8" cx="34.85" cy="34.73" r="1.49"/><circle class="cls-8" cx="26.94" cy="34.73" r="1.49"/><circle class="cls-8" cx="19.03" cy="34.73" r="1.49"/><circle class="cls-8" cx="11.12" cy="34.73" r="1.49"/><circle class="cls-8" cx="3.2" cy="34.73" r="1.49"/><circle class="cls-8" cx="129.78" cy="26.82" r="1.49"/><circle class="cls-8" cx="121.87" cy="26.82" r="1.49"/><circle class="cls-8" cx="113.96" cy="26.82" r="1.49"/><circle class="cls-8" cx="106.05" cy="26.82" r="1.49"/><circle class="cls-8" cx="98.14" cy="26.82" r="1.49"/><circle class="cls-8" cx="90.22" cy="26.82" r="1.49"/><circle class="cls-8" cx="82.31" cy="26.82" r="1.49"/><circle class="cls-8" cx="74.4" cy="26.82" r="1.49"/><circle class="cls-8" cx="66.49" cy="26.82" r="1.49"/><circle class="cls-8" cx="58.58" cy="26.82" r="1.49"/><circle class="cls-8" cx="50.67" cy="26.82" r="1.49"/><circle class="cls-8" cx="42.76" cy="26.82" r="1.49"/><circle class="cls-8" cx="34.85" cy="26.82" r="1.49"/><circle class="cls-8" cx="26.94" cy="26.82" r="1.49"/><circle class="cls-8" cx="19.03" cy="26.82" r="1.49"/><circle class="cls-8" cx="11.12" cy="26.82" r="1.49"/><circle class="cls-8" cx="3.2" cy="26.82" r="1.49"/><circle class="cls-8" cx="137.69" cy="18.91" r="1.49"/><circle class="cls-8" cx="129.78" cy="18.91" r="1.49"/><circle class="cls-8" cx="121.87" cy="18.91" r="1.49"/><circle class="cls-8" cx="113.96" cy="18.91" r="1.49"/><circle class="cls-8" cx="106.05" cy="18.91" r="1.49"/><circle class="cls-8" cx="98.14" cy="18.91" r="1.49"/><circle class="cls-8" cx="90.22" cy="18.91" r="1.49"/><circle class="cls-8" cx="82.31" cy="18.91" r="1.49"/><circle class="cls-8" cx="74.4" cy="18.91" r="1.49"/><circle class="cls-8" cx="66.49" cy="18.91" r="1.49"/><circle class="cls-8" cx="58.58" cy="18.91" r="1.49"/><circle class="cls-8" cx="50.67" cy="18.91" r="1.49"/><circle class="cls-8" cx="42.76" cy="18.91" r="1.49"/><circle class="cls-8" cx="34.85" cy="18.91" r="1.49"/><circle class="cls-8" cx="26.94" cy="18.91" r="1.49"/><circle class="cls-8" cx="19.03" cy="18.91" r="1.49"/><circle class="cls-8" cx="11.12" cy="18.91" r="1.49"/><circle class="cls-8" cx="3.2" cy="18.91" r="1.49"/><circle class="cls-8" cx="145.6" cy="11" r="1.49"/><circle class="cls-8" cx="137.69" cy="11" r="1.49"/><circle class="cls-8" cx="129.78" cy="11" r="1.49"/><circle class="cls-8" cx="121.87" cy="11" r="1.49"/><circle class="cls-8" cx="113.96" cy="11" r="1.49"/><circle class="cls-8" cx="106.05" cy="11" r="1.49"/><circle class="cls-8" cx="98.14" cy="11" r="1.49"/><circle class="cls-8" cx="90.22" cy="11" r="1.49"/><circle class="cls-8" cx="82.31" cy="11" r="1.49"/><circle class="cls-8" cx="74.4" cy="11" r="1.49"/><circle class="cls-8" cx="66.49" cy="11" r="1.49"/><circle class="cls-8" cx="58.58" cy="11" r="1.49"/><circle class="cls-8" cx="50.67" cy="11" r="1.49"/><circle class="cls-8" cx="42.76" cy="11" r="1.49"/><circle class="cls-8" cx="34.85" cy="11" r="1.49"/><circle class="cls-8" cx="26.94" cy="11" r="1.49"/><circle class="cls-8" cx="19.03" cy="11" r="1.49"/><circle class="cls-8" cx="11.12" cy="11" r="1.49"/><circle class="cls-8" cx="3.2" cy="11" r="1.49"/><circle class="cls-8" cx="153.51" cy="3.09" r="1.49"/><circle class="cls-8" cx="145.6" cy="3.09" r="1.49"/><circle class="cls-8" cx="137.69" cy="3.09" r="1.49"/><circle class="cls-8" cx="129.78" cy="3.09" r="1.49"/><circle class="cls-8" cx="121.87" cy="3.09" r="1.49"/><circle class="cls-8" cx="113.96" cy="3.09" r="1.49"/><circle class="cls-8" cx="106.05" cy="3.09" r="1.49"/><circle class="cls-8" cx="98.14" cy="3.09" r="1.49"/><circle class="cls-8" cx="90.22" cy="3.09" r="1.49"/><circle class="cls-8" cx="82.31" cy="3.09" r="1.49"/><circle class="cls-8" cx="74.4" cy="3.09" r="1.49"/><circle class="cls-8" cx="66.49" cy="3.09" r="1.49"/><circle class="cls-8" cx="58.58" cy="3.09" r="1.49"/><circle class="cls-8" cx="50.67" cy="3.09" r="1.49"/><circle class="cls-8" cx="42.76" cy="3.09" r="1.49"/><circle class="cls-8" cx="34.85" cy="3.09" r="1.49"/><circle class="cls-8" cx="26.94" cy="3.09" r="1.49"/><circle class="cls-8" cx="19.03" cy="3.09" r="1.49"/><circle class="cls-8" cx="11.12" cy="3.09" r="1.49"/><circle class="cls-8" cx="3.2" cy="3.09" r="1.49"/><path class="cls-9" d="M385.95,623c0.41,0.74.85,1.48,1.27,2.22H391q-1.12-1.91-2.2-3.82a60.55,60.55,0,0,1-4.52-49.48l-4.84,4.84A63.91,63.91,0,0,0,385.95,623Zm24.36,0c0.41,0.74.85,1.48,1.27,2.22h3.8c-0.75-1.27-1.48-2.55-2.2-3.82a60.55,60.55,0,0,1-.13-59.37c2.78-5,5.86-10,8.85-14.77,5.93-9.54,11.64-18.77,15.19-28.14l-6.43,6.43c-3.25,6.58-7.34,13.19-11.55,20-3,4.84-6.12,9.85-8.93,14.9A63.83,63.83,0,0,0,410.31,623Zm12.18,0c0.41,0.74.85,1.48,1.27,2.22h3.8q-1.12-1.91-2.2-3.82a60.55,60.55,0,0,1-.13-59.37c2.78-5,5.86-10,8.85-14.77,9.19-14.8,17.89-28.84,18.72-43.85l-3.71,3.71c-2,12.8-9.67,25.29-17.8,38.4-3,4.84-6.12,9.85-8.93,14.9A63.83,63.83,0,0,0,422.49,623Zm-24.36,0c0.41,0.74.85,1.48,1.27,2.22h3.8q-1.12-1.91-2.2-3.82a60.55,60.55,0,0,1-.13-59.37c2.78-5,5.86-10,8.85-14.77l1.25-2-10,10c-1,1.73-2,3.47-3,5.22A63.83,63.83,0,0,0,398.13,623Zm97.45,0c0.41,0.74.85,1.48,1.27,2.22H499v-2.87l-0.55-1a60.55,60.55,0,0,1-.13-59.37l0.68-1.18v-6.54c-1.21,2-2.41,4.07-3.56,6.12A63.83,63.83,0,0,0,495.58,623Zm-12.18,0c0.41,0.74.85,1.48,1.27,2.22h3.8q-1.12-1.91-2.2-3.82a60.55,60.55,0,0,1-.13-59.37c2.78-5,5.86-10,8.85-14.77q2-3.27,4-6.5v-6.44c-2.15,3.7-4.46,7.43-6.81,11.2-3,4.84-6.12,9.85-8.93,14.9A63.83,63.83,0,0,0,483.4,623Zm-109.63,0c0.41,0.74.85,1.48,1.27,2.22h3.8c-0.75-1.27-1.48-2.55-2.2-3.82A60.89,60.89,0,0,1,369,587.27l-3.44,3.44A64.29,64.29,0,0,0,373.77,623Zm97.45,0c0.41,0.74.85,1.48,1.27,2.22h3.8q-1.12-1.91-2.2-3.82a60.55,60.55,0,0,1-.13-59.37c2.78-5,5.87-10,8.85-14.77,6.52-10.5,12.79-20.62,16.19-31V486a102.39,102.39,0,0,0-9.29-19.46L487.3,469c6.07,10.44,10.76,20.68,11,31.37,0.31,15.24-8.71,29.8-18.29,45.23-3,4.84-6.12,9.85-8.93,14.9A63.83,63.83,0,0,0,471.22,623ZM338.5,625.25h3.8q-1.12-1.91-2.2-3.82-1-1.72-1.8-3.48l-2.44,2.44c0.44,0.88.88,1.77,1.37,2.64S338.07,624.51,338.5,625.25ZM349.41,623c0.41,0.74.85,1.48,1.27,2.22h3.8c-0.75-1.27-1.48-2.55-2.2-3.82a62,62,0,0,1-5.19-12.26l-2.64,2.64A65.53,65.53,0,0,0,349.41,623ZM494.89,461.36c1.41,2.27,2.79,4.53,4.11,6.77v-6.39L497.28,459ZM446.85,623c0.41,0.74.85,1.48,1.27,2.22h3.8q-1.12-1.91-2.2-3.82a60.55,60.55,0,0,1-.13-59.37c2.78-5,5.86-10,8.85-14.77,9.66-15.56,18.8-30.27,18.8-46.14,0-.3,0-0.6,0-0.9a51.43,51.43,0,0,0-3.76-17.47l-2.57,2.57a47.08,47.08,0,0,1,3,15c0.32,15.23-8.72,29.8-18.29,45.23-3,4.84-6.12,9.85-8.93,14.9A63.83,63.83,0,0,0,446.85,623Zm-12.18,0c0.41,0.74.85,1.48,1.27,2.22h3.8q-1.12-1.91-2.2-3.82a60.55,60.55,0,0,1-.13-59.37c2.78-5,5.86-10,8.85-14.77,9.66-15.56,18.8-30.27,18.8-46.14,0-.3,0-0.6,0-0.9a45.22,45.22,0,0,0-1-8.1L461.28,495a40.65,40.65,0,0,1,.49,5.35c0.31,15.23-8.72,29.8-18.29,45.23-3,4.84-6.12,9.85-8.93,14.9A63.83,63.83,0,0,0,434.67,623Zm-73.09,0c0.41,0.74.85,1.48,1.27,2.22h3.8q-1.12-1.91-2.2-3.82a61.4,61.4,0,0,1-7.36-22.28L354.22,602A64.8,64.8,0,0,0,361.59,623ZM459,623c0.41,0.74.85,1.48,1.27,2.22h3.8c-0.75-1.27-1.48-2.55-2.2-3.82a60.55,60.55,0,0,1-.13-59.37c2.78-5,5.86-10,8.85-14.77,9.66-15.56,18.8-30.27,18.8-46.14,0-.3,0-0.6,0-0.9-0.21-8.94-3.24-17.42-7.56-25.86l-2.46,2.46c3.87,7.75,6.54,15.49,6.72,23.48,0.28,15.23-8.72,29.8-18.29,45.23-3,4.84-6.12,9.85-8.93,14.9A63.83,63.83,0,0,0,459,623Z" transform="translate(-0.5 -326.75)"/></svg>