<svg id="Capa_3" data-name="Capa 3" xmlns="http://www.w3.org/2000/svg" viewBox="0 0 347.71 243.11"><defs><style>.cls-1{fill:#f66;}.cls-1,.cls-2,.cls-3{stroke:#c00;stroke-linejoin:round;}.cls-1,.cls-3{stroke-width:6.21px;}.cls-2{fill:#fcc;stroke-width:6px;}.cls-3{fill:none;stroke-linecap:round;}.cls-4{fill:#c00;}</style></defs><title>logollibreria-textvect</title><rect class="cls-1" x="3.11" y="16.5" width="341.5" height="223.5"/><rect class="cls-2" x="13.61" y="3" width="320" height="222.5"/><line class="cls-3" x1="173.61" y1="20.5" x2="173.61" y2="210"/><path class="cls-4" d="M281.43,170.14a25,25,0,0,1-3.68,1.23,15.7,15.7,0,0,1-3.85.49,9.83,9.83,0,0,1-2.62-.34,5.69,5.69,0,0,1-2.17-1.12,5.34,5.34,0,0,1-1.46-2,7.84,7.84,0,0,1-.54-3.1V154.92h-2.79v-6.15h2.79v-7.09h8.17v7.09h4.43v6.15h-4.43v7.48a2.12,2.12,0,0,0,.47,1.57,1.79,1.79,0,0,0,1.29.45,5.73,5.73,0,0,0,1.38-.19,9.43,9.43,0,0,0,1.55-.54Z" transform="translate(-76.89 -98.5)"/><path class="cls-4" d="M290.59,171.82a6.56,6.56,0,0,1-5.25-2.09q-1.81-2.09-1.81-6.08V148.77h8.17v13a3.58,3.58,0,0,0,.67,2.32,2.23,2.23,0,0,0,1.83.82,4.84,4.84,0,0,0,1.94-.43,5,5,0,0,0,2-1.89V148.77h8.17v13.59a2.76,2.76,0,0,0,.34,1.61,1.64,1.64,0,0,0,1.2.54v6.88a18,18,0,0,1-3.44.43q-4.17,0-4.82-3.14l-0.17-.82a9.2,9.2,0,0,1-3.78,3A12.85,12.85,0,0,1,290.59,171.82Z" transform="translate(-76.89 -98.5)"/><path class="cls-4" d="M326.54,155.74a16.69,16.69,0,0,0-4.3.52,5.24,5.24,0,0,0-2.88,1.72v13.42h-8.17V148.77h7.48v4.3a9.55,9.55,0,0,1,3-3.5,6.66,6.66,0,0,1,3.85-1.23,7.26,7.26,0,0,1,1,0v7.35Z" transform="translate(-76.89 -98.5)"/><path class="cls-4" d="M351.82,171.39h-8.17V158.66a3.34,3.34,0,0,0-.75-2.43,2.4,2.4,0,0,0-1.74-.75,3.64,3.64,0,0,0-2.19.9,5.37,5.37,0,0,0-1.72,2.32v12.69h-8.17V148.77h7.35v3.35a7.61,7.61,0,0,1,3.38-2.82,12.54,12.54,0,0,1,5.14-1,7,7,0,0,1,3.68.84,5.87,5.87,0,0,1,2.06,2.09,7.69,7.69,0,0,1,.92,2.67,17.32,17.32,0,0,1,.21,2.58v14.88Z" transform="translate(-76.89 -98.5)"/><path class="cls-4" d="M281.43,221.74a25,25,0,0,1-3.68,1.23,15.7,15.7,0,0,1-3.85.49,9.83,9.83,0,0,1-2.62-.34,5.69,5.69,0,0,1-2.17-1.12,5.34,5.34,0,0,1-1.46-2,7.84,7.84,0,0,1-.54-3.1V206.52h-2.79v-6.15h2.79v-7.09h8.17v7.09h4.43v6.15h-4.43V214a2.12,2.12,0,0,0,.47,1.57A1.79,1.79,0,0,0,277,216a5.73,5.73,0,0,0,1.38-.19,9.43,9.43,0,0,0,1.55-.54Z" transform="translate(-76.89 -98.5)"/><path class="cls-4" d="M306.5,223h-8.17V210.26a3.34,3.34,0,0,0-.75-2.43,2.54,2.54,0,0,0-1.87-.75,2.37,2.37,0,0,0-.92.24,5.31,5.31,0,0,0-1.08.65,5.73,5.73,0,0,0-1.78,2.34V223h-8.17V191.6h8.17v12.13a7.91,7.91,0,0,1,3.14-2.82,9.57,9.57,0,0,1,4.34-1,7.57,7.57,0,0,1,3.78.82,5.81,5.81,0,0,1,2.15,2,7.25,7.25,0,0,1,.95,2.64,17.82,17.82,0,0,1,.21,2.67V223Z" transform="translate(-76.89 -98.5)"/><path class="cls-4" d="M321.59,223.42a14.21,14.21,0,0,1-5.29-.92,11.2,11.2,0,0,1-3.89-2.52,10.81,10.81,0,0,1-2.39-3.66,11.68,11.68,0,0,1-.82-4.34,13.51,13.51,0,0,1,.79-4.64,10.74,10.74,0,0,1,2.37-3.83,11.43,11.43,0,0,1,3.87-2.6,15.24,15.24,0,0,1,10.69,0,11.55,11.55,0,0,1,3.89,2.58,10.65,10.65,0,0,1,2.36,3.74,12.61,12.61,0,0,1,.8,4.45q0,0.65-.06,1.31t-0.15,1.18H317.89a3.18,3.18,0,0,0,1.33,2.6,4.66,4.66,0,0,0,2.62.8,5.46,5.46,0,0,0,2.52-.6,3,3,0,0,0,1.57-1.68l6.92,2a10.91,10.91,0,0,1-4.24,4.43A13.41,13.41,0,0,1,321.59,223.42Zm3.61-14.15a4.21,4.21,0,0,0-1.2-2.58,3.87,3.87,0,0,0-5.07,0,4.19,4.19,0,0,0-1.2,2.58h7.48Z" transform="translate(-76.89 -98.5)"/><path class="cls-4" d="M280.79,275a8.89,8.89,0,0,1-4.26-1,6.71,6.71,0,0,1-2.79-2.82v12.51h-8.17V252h7.09v3.4a8.47,8.47,0,0,1,3-2.84,8.76,8.76,0,0,1,4.34-1,9.94,9.94,0,0,1,4.17.88,9.82,9.82,0,0,1,3.31,2.43,11.51,11.51,0,0,1,2.17,3.7,13.28,13.28,0,0,1,.8,4.64,14.67,14.67,0,0,1-.73,4.71,12,12,0,0,1-2,3.76,9.21,9.21,0,0,1-3.05,2.47A8.45,8.45,0,0,1,280.79,275Zm-2.84-6.88a3.57,3.57,0,0,0,1.66-.39,3.87,3.87,0,0,0,1.29-1.08,5.73,5.73,0,0,0,1.18-3.53,4.79,4.79,0,0,0-1.23-3.44,4.27,4.27,0,0,0-3.25-1.29,4.62,4.62,0,0,0-3.87,2.32v3.91a6.25,6.25,0,0,0,1.76,2.49A3.73,3.73,0,0,0,277.95,268.14Z" transform="translate(-76.89 -98.5)"/><path class="cls-4" d="M300,275a8.73,8.73,0,0,1-3.14-.56,7.78,7.78,0,0,1-2.52-1.53,7,7,0,0,1-1.66-2.3,6.91,6.91,0,0,1-.6-2.88,6.75,6.75,0,0,1,.73-3.14,7.52,7.52,0,0,1,2-2.45,9.29,9.29,0,0,1,3.07-1.59,13.1,13.1,0,0,1,3.93-.56,10.6,10.6,0,0,1,4.56.86v-0.69a2.91,2.91,0,0,0-.92-2.36,4.64,4.64,0,0,0-3-.77,9.94,9.94,0,0,0-3.57.62,17.58,17.58,0,0,0-3.44,1.83l-2.37-5.07a18.4,18.4,0,0,1,10.19-2.88q5.42,0,8.34,2.41t2.92,7.22v4.39a2.76,2.76,0,0,0,.34,1.61,1.64,1.64,0,0,0,1.2.54v6.88q-1,.22-1.87.32a13.21,13.21,0,0,1-1.57.11,5.81,5.81,0,0,1-3.33-.79,3.71,3.71,0,0,1-1.48-2.34l-0.17-.82a10.43,10.43,0,0,1-3.48,2.95A9.15,9.15,0,0,1,300,275Zm2.45-5.85a5.15,5.15,0,0,0,1.5-.24,5.45,5.45,0,0,0,1.38-.62,3.51,3.51,0,0,0,.77-0.75,1.4,1.4,0,0,0,.3-0.84V265a11.6,11.6,0,0,0-1.59-.43,8,8,0,0,0-1.55-.17,4.08,4.08,0,0,0-2.49.73,2.21,2.21,0,0,0-1,1.85,1.9,1.9,0,0,0,.75,1.55A3,3,0,0,0,302.5,269.17Z" transform="translate(-76.89 -98.5)"/><path class="cls-4" d="M327.83,274.59a9.13,9.13,0,0,1-4-.88,9.33,9.33,0,0,1-3.12-2.41,11.08,11.08,0,0,1-2-3.59,14.53,14.53,0,0,1,.06-9.16,11,11,0,0,1,2.17-3.7,10,10,0,0,1,3.33-2.43,10.15,10.15,0,0,1,4.26-.88,9.14,9.14,0,0,1,4.3,1,7.18,7.18,0,0,1,2.92,2.82V252h7.09v20.55a11.39,11.39,0,0,1-1,4.82A10.3,10.3,0,0,1,339,281a13.16,13.16,0,0,1-4.34,2.34,17.89,17.89,0,0,1-5.63.84,16.16,16.16,0,0,1-6.28-1.12,14.32,14.32,0,0,1-4.73-3.22l4.3-4.47a11.13,11.13,0,0,0,3,2,8.85,8.85,0,0,0,3.72.8,7.44,7.44,0,0,0,2.13-.3,4.82,4.82,0,0,0,1.78-1,4.61,4.61,0,0,0,1.23-1.74,6.65,6.65,0,0,0,.45-2.58v-1.46a6.12,6.12,0,0,1-2.82,2.67A9.31,9.31,0,0,1,327.83,274.59Zm2.92-6.45a4,4,0,0,0,2.17-.58,6.28,6.28,0,0,0,1.74-1.74v-4a5.52,5.52,0,0,0-1.78-2.45,4,4,0,0,0-2.47-.9,3.33,3.33,0,0,0-1.61.41,4.51,4.51,0,0,0-1.31,1.08,4.71,4.71,0,0,0-.86,1.59,6.27,6.27,0,0,0-.3,2,4.68,4.68,0,0,0,1.25,3.4A4.23,4.23,0,0,0,330.75,268.14Z" transform="translate(-76.89 -98.5)"/><path class="cls-4" d="M358.1,275a14.21,14.21,0,0,1-5.29-.92,11.2,11.2,0,0,1-3.89-2.52,10.81,10.81,0,0,1-2.39-3.66,11.68,11.68,0,0,1-.82-4.34,13.52,13.52,0,0,1,.79-4.64,10.73,10.73,0,0,1,2.37-3.83,11.4,11.4,0,0,1,3.87-2.6,15.23,15.23,0,0,1,10.69,0,11.53,11.53,0,0,1,3.89,2.58,10.64,10.64,0,0,1,2.36,3.74,12.61,12.61,0,0,1,.8,4.45q0,0.64-.06,1.31t-0.15,1.18H354.4a3.18,3.18,0,0,0,1.33,2.6,4.66,4.66,0,0,0,2.62.8,5.47,5.47,0,0,0,2.52-.6,3,3,0,0,0,1.57-1.68l6.92,2a10.91,10.91,0,0,1-4.24,4.43A13.42,13.42,0,0,1,358.1,275Zm3.61-14.15a4.21,4.21,0,0,0-1.2-2.58,3.87,3.87,0,0,0-5.07,0,4.19,4.19,0,0,0-1.2,2.58h7.48Z" transform="translate(-76.89 -98.5)"/><circle class="cls-4" cx="299.73" cy="172.63" r="4.63"/></svg>